<?xml version="1.0" encoding="UTF-8" standalone="no"?>
<!-- Created with Inkscape (http://www.inkscape.org/) -->

<svg
   xmlns:dc="http://purl.org/dc/elements/1.1/"
   xmlns:cc="http://creativecommons.org/ns#"
   xmlns:rdf="http://www.w3.org/1999/02/22-rdf-syntax-ns#"
   xmlns:svg="http://www.w3.org/2000/svg"
   xmlns="http://www.w3.org/2000/svg"
   xmlns:sodipodi="http://sodipodi.sourceforge.net/DTD/sodipodi-0.dtd"
   xmlns:inkscape="http://www.inkscape.org/namespaces/inkscape"
   width="111.21875pt"
   height="111.2187pt"
   viewBox="0 0 139.02344 139.02338"
   id="svg4148"
   version="1.1"
   inkscape:version="0.91 r13725"
   sodipodi:docname="e-10d.svg">
  <defs
     id="defs4150" />
  <sodipodi:namedview
     id="base"
     pagecolor="#ffffff"
     bordercolor="#666666"
     borderopacity="1.0"
     inkscape:pageopacity="0.0"
     inkscape:pageshadow="2"
     inkscape:zoom="3.959798"
     inkscape:cx="24.119979"
     inkscape:cy="69.611183"
     inkscape:document-units="px"
     inkscape:current-layer="layer1"
     showgrid="false"
     units="pt"
     inkscape:window-width="1440"
     inkscape:window-height="810"
     inkscape:window-x="0"
     inkscape:window-y="0"
     inkscape:window-maximized="0"
     fit-margin-top="0"
     fit-margin-left="0"
     fit-margin-right="0"
     fit-margin-bottom="0" />
  <metadata
     id="metadata4153">
    <rdf:RDF>
      <cc:Work
         rdf:about="">
        <dc:format>image/svg+xml</dc:format>
        <dc:type
           rdf:resource="http://purl.org/dc/dcmitype/StillImage" />
        <dc:title></dc:title>
      </cc:Work>
    </rdf:RDF>
  </metadata>
  <g
     inkscape:label="Layer 1"
     inkscape:groupmode="layer"
     id="layer1"
     transform="translate(7.0117185,-920.35052)">
    <path
       style="color:#000000;clip-rule:nonzero;display:inline;overflow:visible;visibility:visible;opacity:1;isolation:auto;mix-blend-mode:normal;color-interpolation:sRGB;color-interpolation-filters:linearRGB;solid-color:#000000;solid-opacity:1;fill:#000000;fill-opacity:1;fill-rule:evenodd;stroke:none;stroke-width:3.75;stroke-linecap:butt;stroke-linejoin:round;stroke-miterlimit:4;stroke-dasharray:none;stroke-dashoffset:0;stroke-opacity:1;color-rendering:auto;image-rendering:auto;shape-rendering:auto;text-rendering:auto;enable-background:accumulate"
       d="m 62.499996,924.06157 c -36.340739,-1.4e-4 -65.800761,29.45989 -65.8006273,65.80064 -1.316e-4,36.34079 29.4598903,65.80079 65.8006273,65.80069 36.340731,10e-5 65.800764,-29.4599 65.800634,-65.80069 1.3e-4,-36.34075 -29.459903,-65.80078 -65.800634,-65.80064 z"
       id="path4138"
       inkscape:connector-curvature="0" />
    <path
       style="color:#000000;clip-rule:nonzero;display:inline;overflow:visible;visibility:visible;opacity:1;isolation:auto;mix-blend-mode:normal;color-interpolation:sRGB;color-interpolation-filters:linearRGB;solid-color:#000000;solid-opacity:1;fill:#ffffff;fill-opacity:1;fill-rule:evenodd;stroke:none;stroke-width:3.75;stroke-linecap:butt;stroke-linejoin:round;stroke-miterlimit:4;stroke-dasharray:none;stroke-dashoffset:0;stroke-opacity:1;color-rendering:auto;image-rendering:auto;shape-rendering:auto;text-rendering:auto;enable-background:accumulate"
       d="m 62.499118,937.58664 c -28.870365,8.6e-4 -52.273931,23.40522 -52.273827,52.27558 -1.04e-4,28.87038 23.403462,52.27468 52.273827,52.27558 28.871053,10e-5 52.275702,-23.4045 52.275592,-52.27558 1.1e-4,-28.87106 -23.404539,-52.27569 -52.275592,-52.27558 z m -19.85976,12.00937 18.806832,0 c 5.527881,0 9.749664,0.26616 12.665043,0.79629 4.089105,0.6815 7.515738,1.98721 10.279683,3.91816 2.763945,1.89315 4.978611,4.5614 6.644538,8.00684 1.703808,3.44544 2.555856,7.23196 2.555856,11.35899 0,7.08017 -2.253195,13.08138 -6.758793,18.00351 -4.505598,4.88426 -12.646143,7.32658 -24.421284,7.32658 l -8.753904,0 0,33.84842 -11.017971,0 z m 11.017971,9.82618 0,29.75976 8.924409,0 c 7.118091,0 12.173535,-1.32585 15.164649,-3.97618 2.991105,-2.65037 4.485942,-6.37994 4.485942,-11.18847 0,-3.48326 -0.88884,-6.45453 -2.668365,-8.91563 -1.741662,-2.49891 -4.051773,-4.14615 -6.929298,-4.94121 -1.855251,-0.49221 -5.281884,-0.73827 -10.279683,-0.73827 z"
       id="path4703"
       inkscape:connector-curvature="0"
       sodipodi:nodetypes="cscsccscccscsccccccsssccsc" />
    <path
       style="color:#000000;clip-rule:nonzero;display:inline;overflow:visible;visibility:visible;opacity:1;isolation:auto;mix-blend-mode:normal;color-interpolation:sRGB;color-interpolation-filters:linearRGB;solid-color:#000000;solid-opacity:1;fill:#000000;fill-opacity:1;fill-rule:evenodd;stroke:none;stroke-width:3.75;stroke-linecap:butt;stroke-linejoin:round;stroke-miterlimit:4;stroke-dasharray:none;stroke-dashoffset:0;stroke-opacity:1;color-rendering:auto;image-rendering:auto;shape-rendering:auto;text-rendering:auto;enable-background:accumulate"
       d="m 62.500003,920.35052 c -38.390841,-1.5e-4 -69.5118625,31.12087 -69.5117215,69.51172 -1.39e-4,38.39086 31.1208825,69.51176 69.5117215,69.51166 38.390837,10e-5 69.511857,-31.1208 69.511717,-69.51166 1.4e-4,-38.39085 -31.12088,-69.51187 -69.511717,-69.51172 z m 0,4.40278 c 35.958726,-1.2e-4 65.109077,29.15022 65.108937,65.10894 1.4e-4,35.95876 -29.150211,65.10906 -65.108937,65.10896 -35.958734,10e-5 -65.1090765,-29.1502 -65.1089475,-65.10896 -1.29e-4,-35.95873 29.1502135,-65.10907 65.1089475,-65.10894 z"
       id="path4135"
       inkscape:connector-curvature="0"
       sodipodi:nodetypes="ssssssssss" />
  </g>
</svg>
