<?xml version="1.0" encoding="UTF-8" standalone="no"?>
<!-- Created with Inkscape (http://www.inkscape.org/) -->

<svg
   xmlns:dc="http://purl.org/dc/elements/1.1/"
   xmlns:cc="http://creativecommons.org/ns#"
   xmlns:rdf="http://www.w3.org/1999/02/22-rdf-syntax-ns#"
   xmlns:svg="http://www.w3.org/2000/svg"
   xmlns="http://www.w3.org/2000/svg"
   xmlns:sodipodi="http://sodipodi.sourceforge.net/DTD/sodipodi-0.dtd"
   xmlns:inkscape="http://www.inkscape.org/namespaces/inkscape"
   width="99.220093pt"
   height="99.220131pt"
   viewBox="0 0 124.02512 124.02516"
   id="svg4148"
   version="1.1"
   inkscape:version="0.92.3 (2405546, 2018-03-11)"
   sodipodi:docname="e-10e.svg">
  <defs
     id="defs4150" />
  <sodipodi:namedview
     id="base"
     pagecolor="#ffffff"
     bordercolor="#666666"
     borderopacity="1.0"
     inkscape:pageopacity="0.0"
     inkscape:pageshadow="2"
     inkscape:zoom="1.4"
     inkscape:cx="127.41823"
     inkscape:cy="137.64389"
     inkscape:document-units="px"
     inkscape:current-layer="layer1"
     showgrid="false"
     units="pt"
     inkscape:window-width="1440"
     inkscape:window-height="810"
     inkscape:window-x="150"
     inkscape:window-y="150"
     inkscape:window-maximized="0"
     fit-margin-top="0"
     fit-margin-left="0"
     fit-margin-right="0"
     fit-margin-bottom="0" />
  <metadata
     id="metadata4153">
    <rdf:RDF>
      <cc:Work
         rdf:about="">
        <dc:format>image/svg+xml</dc:format>
        <dc:type
           rdf:resource="http://purl.org/dc/dcmitype/StillImage" />
        <dc:title />
      </cc:Work>
    </rdf:RDF>
  </metadata>
  <g
     inkscape:label="Layer 1"
     inkscape:groupmode="layer"
     id="layer1"
     transform="translate(-0.4874395,-927.84964)">
    <path
       style="color:#000000;clip-rule:nonzero;display:inline;overflow:visible;visibility:visible;opacity:1;isolation:auto;mix-blend-mode:normal;color-interpolation:sRGB;color-interpolation-filters:linearRGB;solid-color:#000000;solid-opacity:1;fill:#ffffff;fill-opacity:1;fill-rule:evenodd;stroke:none;stroke-width:3.75;stroke-linecap:butt;stroke-linejoin:round;stroke-miterlimit:4;stroke-dasharray:none;stroke-dashoffset:0;stroke-opacity:1;color-rendering:auto;image-rendering:auto;shape-rendering:auto;text-rendering:auto;enable-background:accumulate"
       d="m 62.499996,927.84964 c -34.248642,-1.3e-4 -62.0126825,27.76392 -62.0125565,62.01257 -1.24e-4,34.24869 27.7639165,62.01269 62.0125565,62.01259 34.248635,10e-5 62.012684,-27.7639 62.012564,-62.01259 1.2e-4,-34.24865 -27.763929,-62.0127 -62.012564,-62.01257 z"
       id="path4138"
       inkscape:connector-curvature="0" />
    <path
       inkscape:connector-curvature="0"
       id="path815"
       d="m 62.499996,933.20678 c -31.289969,-1.2e-4 -56.6555278,25.36545 -56.6554127,56.65543 -1.133e-4,31.29009 25.3654457,56.65559 56.6554127,56.65549 31.289963,10e-5 56.655534,-25.3654 56.655414,-56.65549 1.2e-4,-31.28998 -25.365451,-56.65555 -56.655414,-56.65543 z"
       style="color:#000000;clip-rule:nonzero;display:inline;overflow:visible;visibility:visible;opacity:1;isolation:auto;mix-blend-mode:normal;color-interpolation:sRGB;color-interpolation-filters:linearRGB;solid-color:#000000;solid-opacity:1;fill:#000000;fill-opacity:1;fill-rule:evenodd;stroke:none;stroke-width:3.4260447;stroke-linecap:butt;stroke-linejoin:round;stroke-miterlimit:4;stroke-dasharray:none;stroke-dashoffset:0;stroke-opacity:1;color-rendering:auto;image-rendering:auto;shape-rendering:auto;text-rendering:auto;enable-background:accumulate" />
    <path
       style="color:#000000;clip-rule:nonzero;display:inline;overflow:visible;visibility:visible;opacity:1;isolation:auto;mix-blend-mode:normal;color-interpolation:sRGB;color-interpolation-filters:linearRGB;solid-color:#000000;solid-opacity:1;fill:#ffffff;fill-opacity:1;fill-rule:evenodd;stroke:none;stroke-width:3.75;stroke-linecap:butt;stroke-linejoin:round;stroke-miterlimit:4;stroke-dasharray:none;stroke-dashoffset:0;stroke-opacity:1;color-rendering:auto;image-rendering:auto;shape-rendering:auto;text-rendering:auto;enable-background:accumulate"
       d="m 62.49902,931.77824 c -32.078183,9.6e-4 -58.0821454,26.0058 -58.08203,58.08398 -1.154e-4,32.07818 26.003847,58.08298 58.08203,58.08398 32.078948,10e-5 58.08411,-26.005 58.08399,-58.08398 1.2e-4,-32.07895 -26.005042,-58.0841 -58.08399,-58.08398 z m -22.0664,13.34375 20.89648,0 c 6.14209,0 10.83296,0.29573 14.07227,0.88476 4.54345,0.75723 8.35082,2.20801 11.42187,4.35352 3.07105,2.10349 5.53179,5.06822 7.38282,8.89648 1.89312,3.82827 2.83984,8.03552 2.83984,12.6211 0,7.86686 -2.50355,14.53487 -7.50977,20.0039 -5.00622,5.42696 -14.05127,8.14065 -27.13476,8.14065 l -9.72656,0 0,37.6094 -12.24219,0 z m 12.24219,10.91797 0,33.0664 9.91601,0 c 7.90899,0 13.52615,-1.47316 16.84961,-4.41797 3.32345,-2.94486 4.98438,-7.08882 4.98438,-12.43164 0,-3.87029 -0.9876,-7.1717 -2.96485,-9.90625 -1.93518,-2.77657 -4.50197,-4.60683 -7.69922,-5.49023 -2.06139,-0.54691 -5.86876,-0.82031 -11.42187,-0.82031 z"
       id="path4703"
       inkscape:connector-curvature="0"
       sodipodi:nodetypes="cscsccscccscsccccccsssccsc" />
  </g>
</svg>
