<?xml version="1.0" encoding="UTF-8" standalone="no"?>
<!-- Created with Inkscape (http://www.inkscape.org/) -->

<svg
   xmlns:dc="http://purl.org/dc/elements/1.1/"
   xmlns:cc="http://creativecommons.org/ns#"
   xmlns:rdf="http://www.w3.org/1999/02/22-rdf-syntax-ns#"
   xmlns:svg="http://www.w3.org/2000/svg"
   xmlns="http://www.w3.org/2000/svg"
   xmlns:sodipodi="http://sodipodi.sourceforge.net/DTD/sodipodi-0.dtd"
   xmlns:inkscape="http://www.inkscape.org/namespaces/inkscape"
   width="111.21875pt"
   height="111.21868pt"
   viewBox="0 0 139.02344 139.02335"
   id="svg4148"
   version="1.1"
   inkscape:version="0.92.3 (2405546, 2018-03-11)"
   sodipodi:docname="e-1ed.svg">
  <defs
     id="defs4150" />
  <sodipodi:namedview
     id="base"
     pagecolor="#ffffff"
     bordercolor="#666666"
     borderopacity="1.0"
     inkscape:pageopacity="0.0"
     inkscape:pageshadow="2"
     inkscape:zoom="2.8"
     inkscape:cx="59.503209"
     inkscape:cy="86.359618"
     inkscape:document-units="px"
     inkscape:current-layer="layer1"
     showgrid="false"
     units="pt"
     inkscape:window-width="1440"
     inkscape:window-height="810"
     inkscape:window-x="175"
     inkscape:window-y="175"
     inkscape:window-maximized="0"
     fit-margin-top="0"
     fit-margin-left="0"
     fit-margin-right="0"
     fit-margin-bottom="0" />
  <metadata
     id="metadata4153">
    <rdf:RDF>
      <cc:Work
         rdf:about="">
        <dc:format>image/svg+xml</dc:format>
        <dc:type
           rdf:resource="http://purl.org/dc/dcmitype/StillImage" />
        <dc:title />
      </cc:Work>
    </rdf:RDF>
  </metadata>
  <g
     inkscape:label="Layer 1"
     inkscape:groupmode="layer"
     id="layer1"
     transform="translate(7.0117205,-920.35055)">
    <path
       style="color:#000000;clip-rule:nonzero;display:inline;overflow:visible;visibility:visible;opacity:1;isolation:auto;mix-blend-mode:normal;color-interpolation:sRGB;color-interpolation-filters:linearRGB;solid-color:#000000;solid-opacity:1;fill:#ffffff;fill-opacity:1;fill-rule:evenodd;stroke:none;stroke-width:4;stroke-linecap:butt;stroke-linejoin:round;stroke-miterlimit:4;stroke-dasharray:none;stroke-dashoffset:0;stroke-opacity:1;color-rendering:auto;image-rendering:auto;shape-rendering:auto;text-rendering:auto;enable-background:accumulate"
       d="M 74.146484 0 C 33.196253 -0.00016 -0.00015061334 33.196222 0 74.146484 C -0.00014826667 115.09668 33.196255 148.29112 74.146484 148.29102 C 115.09671 148.29112 148.29116 115.09668 148.29102 74.146484 C 148.29116 33.196222 115.09671 -0.00016 74.146484 0 z "
       transform="matrix(0.93749997,0,0,0.93749997,-7.0117205,920.35055)"
       id="path821" />
    <path
       style="color:#000000;clip-rule:nonzero;display:inline;overflow:visible;visibility:visible;opacity:1;isolation:auto;mix-blend-mode:normal;color-interpolation:sRGB;color-interpolation-filters:linearRGB;solid-color:#000000;solid-opacity:1;fill:#000000;fill-opacity:1;fill-rule:evenodd;stroke:none;stroke-width:2.85132909;stroke-linecap:butt;stroke-linejoin:round;stroke-miterlimit:4;stroke-dasharray:none;stroke-dashoffset:0;stroke-opacity:1;color-rendering:auto;image-rendering:auto;shape-rendering:auto;text-rendering:auto;enable-background:accumulate"
       d="m 62.499992,938.8703 c -28.162081,-1.1e-4 -50.991988,22.82981 -50.991885,50.99188 -1.02e-4,28.16222 22.829805,50.99202 50.991885,50.99202 28.162085,0 50.991998,-22.8298 50.991898,-50.99202 1e-4,-28.16207 -22.829813,-50.99199 -50.991898,-50.99188 z"
       id="path4138"
       inkscape:connector-curvature="0" />
    <path
       style="color:#000000;clip-rule:nonzero;display:inline;overflow:visible;visibility:visible;opacity:1;isolation:auto;mix-blend-mode:normal;color-interpolation:sRGB;color-interpolation-filters:linearRGB;solid-color:#000000;solid-opacity:1;fill:#2ad4ff;fill-opacity:1;fill-rule:evenodd;stroke:none;stroke-width:3.75;stroke-linecap:butt;stroke-linejoin:round;stroke-miterlimit:4;stroke-dasharray:none;stroke-dashoffset:0;stroke-opacity:1;color-rendering:auto;image-rendering:auto;shape-rendering:auto;text-rendering:auto;enable-background:accumulate"
       d="m 62.5,937.58663 c -28.871053,-10e-5 -52.275692,23.40454 -52.275586,52.27559 -1.04e-4,28.87108 23.404534,52.27568 52.275586,52.27558 28.871049,10e-5 52.27569,-23.4045 52.27558,-52.27558 C 114.77569,960.99117 91.371051,937.58653 62.5,937.58663 Z m 0.903515,10.47657 6.588282,0 0,83.598 -10.223438,0 0,-65.14097 c -2.461041,2.34744 -5.698523,4.69435 -9.711914,7.04179 -3.975529,2.34746 -7.55278,4.10851 -10.733203,5.28223 l 0,-9.88242 c 5.717188,-2.6882 10.713957,-5.94415 14.992383,-9.76817 4.278426,-3.8241 7.308369,-7.53356 9.08789,-11.13046 z"
       id="path4696"
       inkscape:connector-curvature="0"
       sodipodi:nodetypes="sssssccccccccsc" />
  </g>
</svg>
