<?xml version="1.0" encoding="UTF-8" standalone="no"?>
<!-- Created with Inkscape (http://www.inkscape.org/) -->

<svg
   xmlns:dc="http://purl.org/dc/elements/1.1/"
   xmlns:cc="http://creativecommons.org/ns#"
   xmlns:rdf="http://www.w3.org/1999/02/22-rdf-syntax-ns#"
   xmlns:svg="http://www.w3.org/2000/svg"
   xmlns="http://www.w3.org/2000/svg"
   xmlns:sodipodi="http://sodipodi.sourceforge.net/DTD/sodipodi-0.dtd"
   xmlns:inkscape="http://www.inkscape.org/namespaces/inkscape"
   width="111.21875pt"
   height="111.21872pt"
   viewBox="0 0 139.02344 139.0234"
   id="svg4148"
   version="1.1"
   inkscape:version="0.91 r13725"
   sodipodi:docname="e-3d.svg">
  <defs
     id="defs4150" />
  <sodipodi:namedview
     id="base"
     pagecolor="#ffffff"
     bordercolor="#666666"
     borderopacity="1.0"
     inkscape:pageopacity="0.0"
     inkscape:pageshadow="2"
     inkscape:zoom="2.8"
     inkscape:cx="25.833443"
     inkscape:cy="90.482806"
     inkscape:document-units="px"
     inkscape:current-layer="layer1"
     showgrid="false"
     units="pt"
     inkscape:window-width="1440"
     inkscape:window-height="810"
     inkscape:window-x="25"
     inkscape:window-y="25"
     inkscape:window-maximized="0"
     fit-margin-top="0"
     fit-margin-left="0"
     fit-margin-right="0"
     fit-margin-bottom="0" />
  <metadata
     id="metadata4153">
    <rdf:RDF>
      <cc:Work
         rdf:about="">
        <dc:format>image/svg+xml</dc:format>
        <dc:type
           rdf:resource="http://purl.org/dc/dcmitype/StillImage" />
        <dc:title></dc:title>
      </cc:Work>
    </rdf:RDF>
  </metadata>
  <g
     inkscape:label="Layer 1"
     inkscape:groupmode="layer"
     id="layer1"
     transform="translate(7.0117211,-920.3505)">
    <path
       style="color:#000000;clip-rule:nonzero;display:inline;overflow:visible;visibility:visible;opacity:1;isolation:auto;mix-blend-mode:normal;color-interpolation:sRGB;color-interpolation-filters:linearRGB;solid-color:#000000;solid-opacity:1;fill:#000000;fill-opacity:1;fill-rule:evenodd;stroke:none;stroke-width:3.75;stroke-linecap:butt;stroke-linejoin:round;stroke-miterlimit:4;stroke-dasharray:none;stroke-dashoffset:0;stroke-opacity:1;color-rendering:auto;image-rendering:auto;shape-rendering:auto;text-rendering:auto;enable-background:accumulate"
       d="m 62.5,920.3505 c -38.390841,-1.5e-4 -69.5118623,31.12087 -69.5117211,69.51172 -1.39e-4,38.39088 31.1208821,69.51178 69.5117211,69.51168 38.39084,10e-5 69.51186,-31.1208 69.51172,-69.51168 C 132.01186,951.47137 100.89084,920.35035 62.5,920.3505 Z m 0,4.40278 c 35.95873,-1.2e-4 65.10908,29.15022 65.10894,65.10894 C 127.60908,1025.821 98.45873,1054.9713 62.5,1054.9712 26.541266,1054.9713 -2.6090761,1025.821 -2.6089472,989.86222 -2.6090761,953.90349 26.541266,924.75315 62.5,924.75328 Z"
       id="path4135"
       inkscape:connector-curvature="0"
       sodipodi:nodetypes="ssssssssss" />
    <path
       style="color:#000000;clip-rule:nonzero;display:inline;overflow:visible;visibility:visible;opacity:1;isolation:auto;mix-blend-mode:normal;color-interpolation:sRGB;color-interpolation-filters:linearRGB;solid-color:#000000;solid-opacity:1;fill:#000000;fill-opacity:1;fill-rule:evenodd;stroke:none;stroke-width:3.75;stroke-linecap:butt;stroke-linejoin:round;stroke-miterlimit:4;stroke-dasharray:none;stroke-dashoffset:0;stroke-opacity:1;color-rendering:auto;image-rendering:auto;shape-rendering:auto;text-rendering:auto;enable-background:accumulate"
       d="m 62.499996,922.4925 c -37.207314,-1.4e-4 -67.369834,30.16239 -67.3696971,67.36971 -1.347e-4,37.20739 30.1623851,67.36989 67.3696971,67.36969 37.207309,2e-4 67.369834,-30.1623 67.369704,-67.36969 1.3e-4,-37.20732 -30.162393,-67.36985 -67.369704,-67.36971 z"
       id="path4138"
       inkscape:connector-curvature="0" />
    <path
       style="color:#000000;clip-rule:nonzero;display:inline;overflow:visible;visibility:visible;opacity:1;isolation:auto;mix-blend-mode:normal;color-interpolation:sRGB;color-interpolation-filters:linearRGB;solid-color:#000000;solid-opacity:1;fill:#ffd42a;fill-opacity:1;fill-rule:evenodd;stroke:none;stroke-width:3.75;stroke-linecap:butt;stroke-linejoin:round;stroke-miterlimit:4;stroke-dasharray:none;stroke-dashoffset:0;stroke-opacity:1;color-rendering:auto;image-rendering:auto;shape-rendering:auto;text-rendering:auto;enable-background:accumulate"
       d="m 62.500004,937.58664 c -28.871053,-1.1e-4 -52.275694,23.40452 -52.275591,52.27558 -1.03e-4,28.87108 23.404538,52.27568 52.275591,52.27558 28.871051,10e-5 52.275686,-23.4045 52.275576,-52.27558 1.1e-4,-28.87105 -23.404525,-52.27568 -52.275576,-52.27558 z m -1.174221,9.73828 c 4.543461,0 8.726715,0.98434 12.550779,2.95312 3.824082,1.93096 6.740186,4.58079 8.74688,7.95058 2.044557,3.36971 3.06738,6.94702 3.06738,10.73321 0,3.59691 -0.965898,6.87286 -2.896875,9.82617 -1.930968,2.95322 -4.790147,5.30009 -8.576366,7.0418 4.922078,1.1359 8.747159,3.5029 11.473241,7.09981 2.726073,3.55901 4.088664,8.02689 4.088664,13.40329 0,7.2696 -2.649879,13.4398 -7.950582,18.5133 -5.300708,5.0357 -12.00335,7.5533 -20.105852,7.5533 -7.307406,0 -13.383918,-2.1761 -18.230274,-6.5303 -4.808502,-4.3541 -7.553835,-9.9954 -8.235351,-16.9242 l 10.223433,-1.364 c 1.173726,5.7929 3.160701,9.9779 5.9625,12.5525 2.839662,2.5368 6.286446,3.804 10.337697,3.804 4.808493,0 8.85951,-1.6657 12.153519,-4.9976 3.331872,-3.3318 4.997453,-7.4581 4.997453,-12.3802 0,-4.6949 -1.533353,-8.55683 -4.600193,-11.58576 -3.066831,-3.06687 -6.967224,-4.6002 -11.7,-4.6002 -1.930968,0 -4.334778,0.37832 -7.212303,1.13555 l 1.135548,-8.97363 c 0.681525,0.0758 1.230588,0.11426 1.647072,0.11426 4.354146,0 8.272926,-1.1366 11.75625,-3.4084 3.483324,-2.27172 5.224221,-5.77373 5.224221,-10.50645 0,-3.74836 -1.267137,-6.85355 -3.803913,-9.31465 -2.536767,-2.46099 -5.812785,-3.6914 -9.826173,-3.6914 -3.975525,0 -7.288317,1.25049 -9.938664,3.74942 -2.650356,2.4989 -4.354479,6.24699 -5.111721,11.24472 l -10.221678,-1.81758 c 1.249452,-6.85305 4.088475,-12.15456 8.518356,-15.90293 4.429872,-3.78619 9.938934,-5.67773 16.526952,-5.67773 z"
       id="path4699"
       inkscape:connector-curvature="0"
       sodipodi:nodetypes="ssssssccscccscsccccscscsccscscsscccs" />
  </g>
</svg>
