<?xml version="1.0" encoding="UTF-8" standalone="no"?>
<!-- Created with Inkscape (http://www.inkscape.org/) -->

<svg
   xmlns:dc="http://purl.org/dc/elements/1.1/"
   xmlns:cc="http://creativecommons.org/ns#"
   xmlns:rdf="http://www.w3.org/1999/02/22-rdf-syntax-ns#"
   xmlns:svg="http://www.w3.org/2000/svg"
   xmlns="http://www.w3.org/2000/svg"
   xmlns:sodipodi="http://sodipodi.sourceforge.net/DTD/sodipodi-0.dtd"
   xmlns:inkscape="http://www.inkscape.org/namespaces/inkscape"
   width="111.21875pt"
   height="111.21869pt"
   viewBox="0 0 139.02344 139.02336"
   id="svg4148"
   version="1.1"
   inkscape:version="0.91 r13725"
   sodipodi:docname="e-5d.svg">
  <defs
     id="defs4150" />
  <sodipodi:namedview
     id="base"
     pagecolor="#ffffff"
     bordercolor="#666666"
     borderopacity="1.0"
     inkscape:pageopacity="0.0"
     inkscape:pageshadow="2"
     inkscape:zoom="1.979899"
     inkscape:cx="54.672298"
     inkscape:cy="68.225973"
     inkscape:document-units="px"
     inkscape:current-layer="layer1"
     showgrid="false"
     units="pt"
     inkscape:window-width="1440"
     inkscape:window-height="810"
     inkscape:window-x="0"
     inkscape:window-y="0"
     inkscape:window-maximized="0"
     fit-margin-top="0"
     fit-margin-left="0"
     fit-margin-right="0"
     fit-margin-bottom="0" />
  <metadata
     id="metadata4153">
    <rdf:RDF>
      <cc:Work
         rdf:about="">
        <dc:format>image/svg+xml</dc:format>
        <dc:type
           rdf:resource="http://purl.org/dc/dcmitype/StillImage" />
        <dc:title></dc:title>
      </cc:Work>
    </rdf:RDF>
  </metadata>
  <g
     inkscape:label="Layer 1"
     inkscape:groupmode="layer"
     id="layer1"
     transform="translate(7.011718,-920.35054)">
    <path
       style="color:#000000;clip-rule:nonzero;display:inline;overflow:visible;visibility:visible;opacity:1;isolation:auto;mix-blend-mode:normal;color-interpolation:sRGB;color-interpolation-filters:linearRGB;solid-color:#000000;solid-opacity:1;fill:#000000;fill-opacity:1;fill-rule:evenodd;stroke:none;stroke-width:3.75;stroke-linecap:butt;stroke-linejoin:round;stroke-miterlimit:4;stroke-dasharray:none;stroke-dashoffset:0;stroke-opacity:1;color-rendering:auto;image-rendering:auto;shape-rendering:auto;text-rendering:auto;enable-background:accumulate"
       d="M 62.5,922.31394 C 25.194063,922.3138 -5.0484069,952.55628 -5.0482699,989.86221 -5.0484041,1027.1682 25.194065,1057.4106 62.5,1057.4105 c 37.305933,10e-5 67.5484,-30.2423 67.54827,-67.54829 C 130.0484,952.55628 99.805935,922.3138 62.5,922.31394 Z"
       id="path4138"
       inkscape:connector-curvature="0" />
    <path
       style="color:#000000;clip-rule:nonzero;display:inline;overflow:visible;visibility:visible;opacity:1;isolation:auto;mix-blend-mode:normal;color-interpolation:sRGB;color-interpolation-filters:linearRGB;solid-color:#000000;solid-opacity:1;fill:#ff0000;fill-opacity:1;fill-rule:evenodd;stroke:none;stroke-width:3.75;stroke-linecap:butt;stroke-linejoin:round;stroke-miterlimit:4;stroke-dasharray:none;stroke-dashoffset:0;stroke-opacity:1;color-rendering:auto;image-rendering:auto;shape-rendering:auto;text-rendering:auto;enable-background:accumulate"
       d="m 62.5,937.58664 c -28.87105,-1.1e-4 -52.275686,23.40453 -52.275582,52.27558 -1.04e-4,28.87108 23.404532,52.27568 52.275582,52.27558 28.87105,10e-5 52.27569,-23.4045 52.27558,-52.27558 C 114.77569,960.99117 91.37105,937.58653 62.5,937.58664 Z m -18.245911,11.41382 41.40351,0 0,9.76817 -33.224409,0 -4.487697,22.37695 c 4.997808,-3.48335 10.374989,-5.22597 15.616934,-5.22597 6.941052,0 12.797351,2.51759 17.569318,7.55332 4.771977,5.03568 7.158309,11.5106 7.158309,19.42387 0,7.5345 -2.09703,14.0464 -6.290589,19.5363 -5.097337,6.7395 -12.37448,10.1092 -20.877414,10.1092 -6.969609,0 -13.266643,-2.1192 -17.901791,-6.3598 -4.598649,-4.2405 -7.225597,-9.8634 -7.882552,-16.868 l 9.768915,-0.9087 c 0.795105,5.225 2.631465,9.1621 5.508981,11.8125 2.915388,2.6124 6.417333,3.9199 10.506447,3.9199 4.9221,0 9.086949,-1.8566 12.494538,-5.567 3.407589,-3.7105 5.111712,-8.632 5.111712,-14.7657 0,-5.83073 -1.647207,-10.43083 -4.941207,-13.80054 -3.256155,-3.36979 -7.77321,-5.05547 -12.835548,-5.05547 -3.145882,0 -5.983529,0.75837 -8.514702,2.27285 -2.531165,1.47666 -4.51995,3.40664 -5.966339,5.79199 l -10.281262,-1.2498 z"
       id="path4701"
       inkscape:connector-curvature="0"
       sodipodi:nodetypes="ssssscccccssscsccccssscscccc" />
    <path
       style="color:#000000;clip-rule:nonzero;display:inline;overflow:visible;visibility:visible;opacity:1;isolation:auto;mix-blend-mode:normal;color-interpolation:sRGB;color-interpolation-filters:linearRGB;solid-color:#000000;solid-opacity:1;fill:#000000;fill-opacity:1;fill-rule:evenodd;stroke:none;stroke-width:3.75;stroke-linecap:butt;stroke-linejoin:round;stroke-miterlimit:4;stroke-dasharray:none;stroke-dashoffset:0;stroke-opacity:1;color-rendering:auto;image-rendering:auto;shape-rendering:auto;text-rendering:auto;enable-background:accumulate"
       d="m 62.500008,920.35054 c -38.390846,-1.5e-4 -69.511867,31.12087 -69.511726,69.51167 -1.39e-4,38.39089 31.120882,69.51179 69.511726,69.51169 38.390832,10e-5 69.511852,-31.1208 69.511712,-69.51169 1.4e-4,-38.3908 -31.12088,-69.51182 -69.511712,-69.51167 z m 0,4.40278 c 35.95872,-1.2e-4 65.109072,29.15022 65.108932,65.10889 1.4e-4,35.95879 -29.150212,65.10909 -65.108932,65.10899 -35.958739,10e-5 -65.109081,-29.1502 -65.108952,-65.10899 -1.29e-4,-35.95868 29.150213,-65.10902 65.108952,-65.10889 z"
       id="path4135"
       inkscape:connector-curvature="0"
       sodipodi:nodetypes="ssssssssss" />
  </g>
</svg>
