<?xml version="1.0" encoding="UTF-8" standalone="no"?>
<!-- Created with Inkscape (http://www.inkscape.org/) -->

<svg
   xmlns:dc="http://purl.org/dc/elements/1.1/"
   xmlns:cc="http://creativecommons.org/ns#"
   xmlns:rdf="http://www.w3.org/1999/02/22-rdf-syntax-ns#"
   xmlns:svg="http://www.w3.org/2000/svg"
   xmlns="http://www.w3.org/2000/svg"
   xmlns:sodipodi="http://sodipodi.sourceforge.net/DTD/sodipodi-0.dtd"
   xmlns:inkscape="http://www.inkscape.org/namespaces/inkscape"
   width="100pt"
   height="100pt"
   viewBox="0 0 125 125"
   id="svg4148"
   version="1.1"
   inkscape:version="0.92.3 (2405546, 2018-03-11)"
   sodipodi:docname="e-5e.svg">
  <defs
     id="defs4150" />
  <sodipodi:namedview
     id="base"
     pagecolor="#ffffff"
     bordercolor="#666666"
     borderopacity="1.0"
     inkscape:pageopacity="0.0"
     inkscape:pageshadow="2"
     inkscape:zoom="1.5214876"
     inkscape:cx="124.75191"
     inkscape:cy="88.966442"
     inkscape:document-units="px"
     inkscape:current-layer="layer1"
     showgrid="false"
     units="pt"
     inkscape:window-width="1440"
     inkscape:window-height="810"
     inkscape:window-x="0"
     inkscape:window-y="0"
     inkscape:window-maximized="0" />
  <metadata
     id="metadata4153">
    <rdf:RDF>
      <cc:Work
         rdf:about="">
        <dc:format>image/svg+xml</dc:format>
        <dc:type
           rdf:resource="http://purl.org/dc/dcmitype/StillImage" />
        <dc:title />
      </cc:Work>
    </rdf:RDF>
  </metadata>
  <g
     inkscape:label="Layer 1"
     inkscape:groupmode="layer"
     id="layer1"
     transform="translate(0,-927.36222)">
    <path
       style="color:#000000;clip-rule:nonzero;display:inline;overflow:visible;visibility:visible;opacity:1;isolation:auto;mix-blend-mode:normal;color-interpolation:sRGB;color-interpolation-filters:linearRGB;solid-color:#000000;solid-opacity:1;fill:#ffffff;fill-opacity:1;fill-rule:evenodd;stroke:none;stroke-width:3.75;stroke-linecap:butt;stroke-linejoin:round;stroke-miterlimit:4;stroke-dasharray:none;stroke-dashoffset:0;stroke-opacity:1;color-rendering:auto;image-rendering:auto;shape-rendering:auto;text-rendering:auto;enable-background:accumulate"
       d="M 62.5,927.84966 C 28.251358,927.84953 0.48731854,955.61358 0.48744439,989.86221 0.48732117,1024.1109 28.25136,1051.8749 62.5,1051.8748 c 34.248638,10e-5 62.01268,-27.7639 62.01256,-62.01259 C 124.51268,955.61358 96.74864,927.84953 62.5,927.84966 Z"
       id="path4138"
       inkscape:connector-curvature="0" />
    <path
       inkscape:connector-curvature="0"
       id="path815"
       d="m 62.5,932.86021 c -31.481385,-1.1e-4 -57.0021177,25.52063 -57.002002,57.002 -1.132e-4,31.48139 25.520619,57.00209 57.002002,57.00199 31.481382,10e-5 57.00212,-25.5206 57.00201,-57.00199 1.1e-4,-31.48137 -25.520626,-57.00211 -57.00201,-57.002 z"
       style="color:#000000;clip-rule:nonzero;display:inline;overflow:visible;visibility:visible;opacity:1;isolation:auto;mix-blend-mode:normal;color-interpolation:sRGB;color-interpolation-filters:linearRGB;solid-color:#000000;solid-opacity:1;fill:#000000;fill-opacity:1;fill-rule:evenodd;stroke:none;stroke-width:3.4470036;stroke-linecap:butt;stroke-linejoin:round;stroke-miterlimit:4;stroke-dasharray:none;stroke-dashoffset:0;stroke-opacity:1;color-rendering:auto;image-rendering:auto;shape-rendering:auto;text-rendering:auto;enable-background:accumulate" />
    <path
       style="color:#000000;clip-rule:nonzero;display:inline;overflow:visible;visibility:visible;opacity:1;isolation:auto;mix-blend-mode:normal;color-interpolation:sRGB;color-interpolation-filters:linearRGB;solid-color:#000000;solid-opacity:1;fill:#ff0000;fill-opacity:1;fill-rule:evenodd;stroke:none;stroke-width:3.75;stroke-linecap:butt;stroke-linejoin:round;stroke-miterlimit:4;stroke-dasharray:none;stroke-dashoffset:0;stroke-opacity:1;color-rendering:auto;image-rendering:auto;shape-rendering:auto;text-rendering:auto;enable-background:accumulate"
       d="m 62.5,931.77824 c -32.078944,-1.2e-4 -58.0840954,26.00504 -58.08398,58.08398 -1.154e-4,32.07898 26.005036,58.08408 58.08398,58.08398 32.078944,10e-5 58.0841,-26.005 58.08398,-58.08398 C 120.5841,957.78328 94.578944,931.77812 62.5,931.77824 Z m -20.273234,12.68203 46.0039,0 0,10.85352 -36.91601,0 -4.98633,24.86328 c 5.55312,-3.87039 11.527765,-5.80664 17.352148,-5.80664 7.71228,0 14.219279,2.79732 19.521465,8.39258 5.302196,5.5952 7.953676,12.78955 7.953676,21.58209 0,8.3717 -2.330033,15.6071 -6.989543,21.707 -5.663708,7.4883 -13.749422,11.2324 -23.197126,11.2324 -7.744011,0 -14.740715,-2.3546 -19.890879,-7.0664 -5.10961,-4.7117 -8.028441,-10.9594 -8.758392,-18.7422 l 10.854351,-1.0097 c 0.88345,5.8056 2.92385,10.1801 6.12109,13.125 3.23932,2.9027 7.13037,4.3554 11.67383,4.3554 5.469,0 10.09661,-2.0628 13.88282,-6.1855 3.78621,-4.1228 5.67968,-9.5911 5.67968,-16.4063 0,-6.47863 -1.83023,-11.58986 -5.49023,-15.33398 -3.61795,-3.74421 -8.6369,-5.61719 -14.26172,-5.61719 -3.495425,0 -6.648366,0.84264 -9.460781,2.52539 -2.812405,1.64073 -5.022166,3.78516 -6.629265,6.43555 L 33.265826,991.9759 Z"
       id="path4701"
       inkscape:connector-curvature="0"
       sodipodi:nodetypes="ssssscccccssscsccccssscscccc" />
  </g>
</svg>
