<?xml version="1.0" encoding="UTF-8" standalone="no"?>
<!-- Created with Inkscape (http://www.inkscape.org/) -->

<svg
   xmlns:dc="http://purl.org/dc/elements/1.1/"
   xmlns:cc="http://creativecommons.org/ns#"
   xmlns:rdf="http://www.w3.org/1999/02/22-rdf-syntax-ns#"
   xmlns:svg="http://www.w3.org/2000/svg"
   xmlns="http://www.w3.org/2000/svg"
   xmlns:sodipodi="http://sodipodi.sourceforge.net/DTD/sodipodi-0.dtd"
   xmlns:inkscape="http://www.inkscape.org/namespaces/inkscape"
   width="111.21875pt"
   height="111.2187pt"
   viewBox="0 0 139.02344 139.02337"
   id="svg4148"
   version="1.1"
   inkscape:version="0.92.3 (2405546, 2018-03-11)"
   sodipodi:docname="e-5ed.svg">
  <defs
     id="defs4150" />
  <sodipodi:namedview
     id="base"
     pagecolor="#ffffff"
     bordercolor="#666666"
     borderopacity="1.0"
     inkscape:pageopacity="0.0"
     inkscape:pageshadow="2"
     inkscape:zoom="0.9899495"
     inkscape:cx="-151.16795"
     inkscape:cy="40.478383"
     inkscape:document-units="px"
     inkscape:current-layer="layer1"
     showgrid="false"
     units="pt"
     inkscape:window-width="1440"
     inkscape:window-height="810"
     inkscape:window-x="0"
     inkscape:window-y="0"
     inkscape:window-maximized="0"
     fit-margin-top="0"
     fit-margin-left="0"
     fit-margin-right="0"
     fit-margin-bottom="0" />
  <metadata
     id="metadata4153">
    <rdf:RDF>
      <cc:Work
         rdf:about="">
        <dc:format>image/svg+xml</dc:format>
        <dc:type
           rdf:resource="http://purl.org/dc/dcmitype/StillImage" />
        <dc:title />
      </cc:Work>
    </rdf:RDF>
  </metadata>
  <g
     inkscape:label="Layer 1"
     inkscape:groupmode="layer"
     id="layer1"
     transform="translate(7.011718,-920.35053)">
    <path
       style="color:#000000;clip-rule:nonzero;display:inline;overflow:visible;visibility:visible;opacity:1;isolation:auto;mix-blend-mode:normal;color-interpolation:sRGB;color-interpolation-filters:linearRGB;solid-color:#000000;solid-opacity:1;fill:#ffffff;fill-opacity:1;fill-rule:evenodd;stroke:none;stroke-width:4;stroke-linecap:butt;stroke-linejoin:round;stroke-miterlimit:4;stroke-dasharray:none;stroke-dashoffset:0;stroke-opacity:1;color-rendering:auto;image-rendering:auto;shape-rendering:auto;text-rendering:auto;enable-background:accumulate"
       d="M 74.146484 0 C 33.196254 -0.00016 -0.00015146667 33.196287 0 74.146484 C -0.00014826667 115.09677 33.196256 148.29112 74.146484 148.29102 C 115.09671 148.29112 148.29116 115.09677 148.29102 74.146484 C 148.29116 33.196287 115.09671 -0.00016 74.146484 0 z "
       transform="matrix(0.93749999,0,0,0.93749999,-7.011718,920.35053)"
       id="path821" />
    <path
       style="color:#000000;clip-rule:nonzero;display:inline;overflow:visible;visibility:visible;opacity:1;isolation:auto;mix-blend-mode:normal;color-interpolation:sRGB;color-interpolation-filters:linearRGB;solid-color:#000000;solid-opacity:1;fill:#000000;fill-opacity:1;fill-rule:evenodd;stroke:none;stroke-width:2.92694426;stroke-linecap:butt;stroke-linejoin:round;stroke-miterlimit:4;stroke-dasharray:none;stroke-dashoffset:0;stroke-opacity:1;color-rendering:auto;image-rendering:auto;shape-rendering:auto;text-rendering:auto;enable-background:accumulate"
       d="m 62.5,938.50362 c -28.364617,-1.1e-4 -51.358707,22.99399 -51.358602,51.3586 -1.03e-4,28.36468 22.993987,51.35868 51.358602,51.35868 28.364614,0 51.35871,-22.994 51.35861,-51.35868 1e-4,-28.36461 -22.993994,-51.35871 -51.35861,-51.3586 z"
       id="path4138"
       inkscape:connector-curvature="0" />
    <path
       style="color:#000000;clip-rule:nonzero;display:inline;overflow:visible;visibility:visible;opacity:1;isolation:auto;mix-blend-mode:normal;color-interpolation:sRGB;color-interpolation-filters:linearRGB;solid-color:#000000;solid-opacity:1;fill:#ff0000;fill-opacity:1;fill-rule:evenodd;stroke:none;stroke-width:3.75;stroke-linecap:butt;stroke-linejoin:round;stroke-miterlimit:4;stroke-dasharray:none;stroke-dashoffset:0;stroke-opacity:1;color-rendering:auto;image-rendering:auto;shape-rendering:auto;text-rendering:auto;enable-background:accumulate"
       d="m 62.5,937.58664 c -28.87105,-1.1e-4 -52.275686,23.40453 -52.275582,52.27558 -1.04e-4,28.87108 23.404532,52.27568 52.275582,52.27558 28.87105,10e-5 52.27569,-23.4045 52.27558,-52.27558 C 114.77569,960.99117 91.37105,937.58653 62.5,937.58664 Z m -18.245911,11.41382 41.40351,0 0,9.76817 -33.224409,0 -4.487697,22.37695 c 4.997808,-3.48335 10.374989,-5.22597 15.616934,-5.22597 6.941052,0 12.797351,2.51759 17.569318,7.55332 4.771977,5.03568 7.158309,11.5106 7.158309,19.42387 0,7.5345 -2.09703,14.0464 -6.290589,19.5363 -5.097337,6.7395 -12.37448,10.1092 -20.877414,10.1092 -6.969609,0 -13.266643,-2.1192 -17.901791,-6.3598 -4.598649,-4.2405 -7.225597,-9.8634 -7.882552,-16.868 l 9.768915,-0.9087 c 0.795105,5.225 2.631465,9.1621 5.508981,11.8125 2.915388,2.6124 6.417333,3.9199 10.506447,3.9199 4.9221,0 9.086949,-1.8566 12.494538,-5.567 3.407589,-3.7105 5.111712,-8.632 5.111712,-14.7657 0,-5.83073 -1.647207,-10.43083 -4.941207,-13.80054 -3.256155,-3.36979 -7.77321,-5.05547 -12.835548,-5.05547 -3.145882,0 -5.983529,0.75837 -8.514702,2.27285 -2.531165,1.47666 -4.51995,3.40664 -5.966339,5.79199 l -10.281262,-1.2498 z"
       id="path4701"
       inkscape:connector-curvature="0"
       sodipodi:nodetypes="ssssscccccssscsccccssscscccc" />
  </g>
</svg>
