<?xml version="1.0" encoding="UTF-8" standalone="no"?>
<!-- Generator: Adobe Illustrator 15.1.0, SVG Export Plug-In  -->

<svg
   xmlns:dc="http://purl.org/dc/elements/1.1/"
   xmlns:cc="http://creativecommons.org/ns#"
   xmlns:rdf="http://www.w3.org/1999/02/22-rdf-syntax-ns#"
   xmlns:svg="http://www.w3.org/2000/svg"
   xmlns="http://www.w3.org/2000/svg"
   xmlns:sodipodi="http://sodipodi.sourceforge.net/DTD/sodipodi-0.dtd"
   xmlns:inkscape="http://www.inkscape.org/namespaces/inkscape"
   version="1.1"
   x="0px"
   y="0px"
   width="52"
   height="37"
   viewBox="-18.169 -8.24 52 37"
   enable-background="new -18.169 -8.24 74 53"
   xml:space="preserve"
   id="svg2"
   inkscape:version="0.91 r13725"
   sodipodi:docname="WAG_BB_White.svg"><metadata
     id="metadata10"><rdf:RDF><cc:Work
         rdf:about=""><dc:format>image/svg+xml</dc:format><dc:type
           rdf:resource="http://purl.org/dc/dcmitype/StillImage" /><dc:title></dc:title></cc:Work></rdf:RDF></metadata><sodipodi:namedview
     pagecolor="#ffffff"
     bordercolor="#666666"
     borderopacity="1"
     objecttolerance="10"
     gridtolerance="10"
     guidetolerance="10"
     inkscape:pageopacity="0"
     inkscape:pageshadow="2"
     inkscape:window-width="1199"
     inkscape:window-height="865"
     id="namedview8"
     showgrid="false"
     inkscape:zoom="5.5039663"
     inkscape:cx="-3.3968943"
     inkscape:cy="6.673018"
     inkscape:window-x="0"
     inkscape:window-y="0"
     inkscape:window-maximized="0"
     inkscape:current-layer="svg2" /><defs
     id="defs4" /><path
     d="m -1.1065891,25.425553 24.4148631,-1.20788 -0.275224,-1.373668 -10.160404,0.603532 -1.804062,-12.5974 3.121378,-6.7433849 0.03675,-0.053901 0.623132,0 c 0,0 0.769319,-2.9964252 0,-3.49950446 l -15.21488207,-4.95320784 -1.15316233,0 c 0,0 -0.1102527,1.1400953 0,1.6137738 l 0.71378563,4.2639235 -0.76360253,5.8768807 -5.8825975,0 0,0.7137846 12.687235,0 0,-0.6590665 -5.43750317,0 1.0992609,-7.19501381 -0.2107053,-1.91921479 -0.3585257,-0.174771 -0.694184,1.31731628 -0.1029026,-1.70932618 8.41351087,4.1242701 0.40181,0.2417394 -0.638649,4.2198225 2.3618598,17.2418986 -11.1771811,0.441011 0,1.428386 z M 9.0815836,2.4104928 8.5605362,2.1548698 12.23563,3.9556649 10.619406,8.6173152 10.289464,5.6511074 9.0815836,2.4104928 Z"
     id="path6"
     style="fill:#ffffff;fill-opacity:1"
     inkscape:connector-curvature="0" /></svg>