<?xml version="1.0" encoding="UTF-8" standalone="no"?>
<!-- Created with Inkscape (http://www.inkscape.org/) -->

<svg
   xmlns:dc="http://purl.org/dc/elements/1.1/"
   xmlns:cc="http://creativecommons.org/ns#"
   xmlns:rdf="http://www.w3.org/1999/02/22-rdf-syntax-ns#"
   xmlns:svg="http://www.w3.org/2000/svg"
   xmlns="http://www.w3.org/2000/svg"
   xmlns:sodipodi="http://sodipodi.sourceforge.net/DTD/sodipodi-0.dtd"
   xmlns:inkscape="http://www.inkscape.org/namespaces/inkscape"
   width="16"
   height="16"
   viewBox="0 0 16 16"
   id="svg4229"
   version="1.1"
   inkscape:version="0.91 r13725"
   sodipodi:docname="favicon.svg">
  <defs
     id="defs4231" />
  <sodipodi:namedview
     id="base"
     pagecolor="#ffffff"
     bordercolor="#666666"
     borderopacity="1.0"
     inkscape:pageopacity="0.0"
     inkscape:pageshadow="2"
     inkscape:zoom="8"
     inkscape:cx="-25.69988"
     inkscape:cy="4.726817"
     inkscape:document-units="px"
     inkscape:current-layer="layer1"
     showgrid="false"
     units="px"
     inkscape:window-width="1440"
     inkscape:window-height="810"
     inkscape:window-x="0"
     inkscape:window-y="0"
     inkscape:window-maximized="0" />
  <metadata
     id="metadata4234">
    <rdf:RDF>
      <cc:Work
         rdf:about="">
        <dc:format>image/svg+xml</dc:format>
        <dc:type
           rdf:resource="http://purl.org/dc/dcmitype/StillImage" />
        <dc:title></dc:title>
      </cc:Work>
    </rdf:RDF>
  </metadata>
  <g
     inkscape:label="Layer 1"
     inkscape:groupmode="layer"
     id="layer1"
     transform="translate(0,-1036.3622)">
    <path
       style="color:#000000;font-style:normal;font-variant:normal;font-weight:normal;font-stretch:normal;font-size:medium;line-height:125%;font-family:'JK Abode';-inkscape-font-specification:'JK Abode';text-indent:0;text-align:start;text-decoration:none;text-decoration-line:none;text-decoration-style:solid;text-decoration-color:#000000;letter-spacing:0px;word-spacing:0px;text-transform:none;direction:ltr;block-progression:tb;writing-mode:lr-tb;baseline-shift:baseline;text-anchor:start;white-space:normal;clip-rule:nonzero;visibility:visible;isolation:auto;mix-blend-mode:normal;color-interpolation:sRGB;color-interpolation-filters:linearRGB;solid-color:#000000;solid-opacity:1;fill:#c83737;fill-opacity:1;fill-rule:nonzero;stroke:none;stroke-width:1px;stroke-linecap:butt;stroke-linejoin:miter;stroke-miterlimit:4;stroke-dasharray:none;stroke-dashoffset:0;stroke-opacity:1;color-rendering:auto;image-rendering:auto;shape-rendering:auto;text-rendering:auto"
       d="m 7.7011224,1039.3088 -1.4259792,1.4396 0,5.2937 c 0.00914,0.4662 0.1050741,0.9046 0.2879163,1.3159 0.1919844,0.4115 0.4429337,0.7685 0.7537654,1.0703 0.3108316,0.3017 0.6723087,0.5436 1.0836972,0.7265 0.4114011,0.1737 0.7724207,0.2608 1.2386681,0.2608 l 0,-1.426 c -0.2742632,0 -0.4580144,-0.05 -0.7048513,-0.1508 -0.2468369,-0.1097 -0.460952,-0.2558 -0.6437942,-0.4386 -0.1828421,-0.1828 -0.328964,-0.3982 -0.4386693,-0.6451 -0.1005569,-0.2468 -0.150753,-0.5067 -0.150753,-0.7809 l 0,-0.1792 0,-1.8103 1.9882217,0 0,-1.426 -1.9882217,0 0,-3.2498 z m -1.6663953,3.2363 c -0.4662475,0 -0.9598558,0.091 -1.3712444,0.2744 -0.4114011,0.1737 -0.7728655,0.4158 -1.0836972,0.7266 -0.3016895,0.3107 -0.5437434,0.6722 -0.7265856,1.0835 -0.1736874,0.4115 -0.2651717,0.8498 -0.2743265,1.3161 6.4e-6,0.2743 -0.054637,0.5353 -0.1643428,0.7823 -0.1005632,0.2376 -0.2422374,0.4473 -0.4250795,0.6301 -0.1736937,0.1738 -0.3845949,0.3154 -0.6314318,0.4251 -0.2376948,0.1006 -0.49309808,0.1507 -0.76736131,0.1507 l 0,1.4681 c 0.46624751,0 0.90461311,-0.087 1.31600161,-0.2607 0.420537,-0.183 0.7864617,-0.4249 1.0972934,-0.7266 0.3199737,-0.3108 0.572163,-0.6679 0.7550052,-1.0701 0.1828295,-0.4114 0.2787615,-0.8498 0.2879163,-1.316 0,-0.2743 0.05019,-0.531 0.150753,-0.7687 0.1097053,-0.2468 0.2513795,-0.461 0.4250732,-0.6438 0.1828422,-0.192 0.3925096,-0.3381 0.6302044,-0.4386 0.2468369,-0.1097 0.5079279,-0.1644 0.7821911,-0.1644 z m 9.3190099,0 c -0.466254,0 -0.90462,0.091 -1.316008,0.2744 -0.411401,0.1737 -0.772866,0.4158 -1.083697,0.7266 -0.30169,0.3107 -0.543744,0.6722 -0.726586,1.0835 -0.173687,0.4115 -0.265172,0.8498 -0.27432,1.3161 0,0.2743 -0.05464,0.5353 -0.164349,0.7823 -0.100564,0.2376 -0.242231,0.4473 -0.425074,0.6301 -0.1737,0.1738 -0.384601,0.3154 -0.631438,0.4251 -0.237694,0.1006 -0.493097,0.1507 -0.767361,0.1507 l 0,1.4681 c 0.466248,0 0.904613,-0.087 1.316008,-0.2607 0.420537,-0.183 0.786455,-0.4249 1.097287,-0.7266 0.319974,-0.3108 0.572163,-0.6679 0.755005,-1.0701 0.18283,-0.4114 0.278762,-0.8498 0.287917,-1.316 0,-0.2743 0.05019,-0.531 0.150753,-0.7687 0.109705,-0.2468 0.251379,-0.461 0.425079,-0.6438 0.182842,-0.192 0.392503,-0.3381 0.630198,-0.4386 0.246837,-0.1097 0.507928,-0.1644 0.782191,-0.1644 z"
       id="path8230"
       inkscape:connector-curvature="0"
       sodipodi:nodetypes="cccccccccscsccccccccccccccccccccccccccccccccccccccccccccc" />
  </g>
</svg>
