<?xml version="1.0" encoding="UTF-8" standalone="no"?>
<!-- Created with Inkscape (http://www.inkscape.org/) -->

<svg
   xmlns:dc="http://purl.org/dc/elements/1.1/"
   xmlns:cc="http://creativecommons.org/ns#"
   xmlns:rdf="http://www.w3.org/1999/02/22-rdf-syntax-ns#"
   xmlns:svg="http://www.w3.org/2000/svg"
   xmlns="http://www.w3.org/2000/svg"
   xmlns:sodipodi="http://sodipodi.sourceforge.net/DTD/sodipodi-0.dtd"
   xmlns:inkscape="http://www.inkscape.org/namespaces/inkscape"
   width="14.69875mm"
   height="7.0251889mm"
   viewBox="0 0 14.69875 7.0251889"
   version="1.1"
   id="svg9930"
   inkscape:version="0.92.3 (2405546, 2018-03-11)"
   sodipodi:docname="pb-white.svg">
  <defs
     id="defs9924" />
  <sodipodi:namedview
     id="base"
     pagecolor="#ffffff"
     bordercolor="#666666"
     borderopacity="1.0"
     inkscape:pageopacity="0.0"
     inkscape:pageshadow="2"
     inkscape:zoom="3.959798"
     inkscape:cx="39.16481"
     inkscape:cy="17.864085"
     inkscape:document-units="mm"
     inkscape:current-layer="layer1"
     showgrid="false"
     fit-margin-top="0"
     fit-margin-left="0"
     fit-margin-right="0"
     fit-margin-bottom="0"
     scale-x="0.7"
     inkscape:pagecheckerboard="true" />
  <metadata
     id="metadata9927">
    <rdf:RDF>
      <cc:Work
         rdf:about="">
        <dc:format>image/svg+xml</dc:format>
        <dc:type
           rdf:resource="http://purl.org/dc/dcmitype/StillImage" />
        <dc:title></dc:title>
      </cc:Work>
    </rdf:RDF>
  </metadata>
  <g
     inkscape:label="Layer 1"
     inkscape:groupmode="layer"
     id="layer1"
     transform="translate(-79.599521,-171.75896)">
    <path
       inkscape:export-ydpi="299.81744"
       inkscape:export-xdpi="299.81744"
       style="opacity:1;fill:#ffffff;fill-opacity:1;stroke:none;stroke-width:0.14061041"
       d="m 89.137967,173.2794 c -1.68658,0.1726 -3.37319,0.3453 -5.05979,0.5179 0,0.041 0,0.082 0,0.1236 0.34695,-0.038 0.69389,-0.076 1.04085,-0.1143 -0.004,0.017 0.011,0.046 -0.0139,0.048 -0.18785,0.019 -0.37572,0.038 -0.56356,0.058 0,0.043 0,0.085 0,0.1276 0.17447,-0.019 0.34895,-0.038 0.52343,-0.058 0,0.5567 0,1.1133 0,1.67 -0.0203,0.036 -0.0645,0.065 -0.0542,0.1116 0,0.192 0,0.3839 0,0.5758 -0.081,-0.048 -0.16202,-0.095 -0.24305,-0.1428 -0.0594,0.018 -0.11872,0.036 -0.17809,0.054 0,0.031 0,0.062 0,0.093 0.49558,0.3071 0.99119,0.6141 1.48677,0.9212 0.0785,-0.028 0.15706,-0.056 0.23557,-0.084 -0.005,-0.026 0.0129,-0.068 -0.0101,-0.085 -0.13963,-0.082 -0.27925,-0.1639 -0.41887,-0.2458 1.04008,-0.2584 2.08014,-0.5167 3.12021,-0.7751 0.19341,0.067 0.3853,0.1414 0.57836,0.208 0.0655,-0.01 0.13111,-0.02 0.19664,-0.03 0,-0.046 0,-0.093 0,-0.1397 -0.22661,-0.075 -0.45323,-0.1504 -0.67985,-0.2256 0,-0.2149 0,-0.4298 0,-0.6446 -0.0194,-0.029 -0.0585,-0.051 -0.0481,-0.09 7.94e-4,-0.4833 -0.002,-0.9666 7.94e-4,-1.4498 0.002,-0.024 0.023,-0.043 0.047,-0.042 0,-0.041 0,-0.082 0,-0.1222 0.24019,-0.026 0.48038,-0.053 0.72055,-0.079 -0.005,-0.027 0.008,-0.072 -0.005,-0.089 -0.4427,0.045 -0.88542,0.091 -1.32811,0.1359 0.005,-0.027 -0.0184,-0.082 0.027,-0.074 0.21246,-0.023 0.42493,-0.046 0.63742,-0.07 -0.006,-0.025 0.0141,-0.081 -0.0108,-0.085 l -0.002,1e-4 z m -0.73831,0.1996 c -0.0209,0 -0.0353,0.023 -0.0406,0.042 -1.04749,0.1072 -2.09498,0.2144 -3.14245,0.3216 -0.0121,-0.045 0.0134,-0.055 0.0539,-0.053 1.04305,-0.1144 2.08608,-0.2287 3.12913,-0.343 0,0.011 0,0.021 0,0.032 z m 0.60977,0.1064 c -0.0471,0.011 -0.0508,0.07 -0.0479,0.1094 0,0.4973 0,0.9946 0,1.4919 -0.0195,0.033 -0.0586,0.06 -0.0481,0.1031 0,0.1791 0,0.3582 0,0.5374 -0.14265,-0.047 -0.28532,-0.095 -0.42799,-0.1422 0,-0.2083 0,-0.4166 0,-0.6249 -0.0193,-0.027 -0.0557,-0.049 -0.0456,-0.087 0,-0.4535 0,-0.9071 0,-1.3606 0.18989,-0.021 0.37979,-0.042 0.56967,-0.063 0,0.012 0,0.024 0,0.036 z m -0.65567,1.4206 c -0.0191,0.032 -0.0561,0.058 -0.0456,0.1 0,0.1734 0,0.3469 0,0.5203 -0.12145,-0.04 -0.24289,-0.081 -0.36434,-0.1208 -0.0468,0.018 -0.0936,0.036 -0.14044,0.054 0.006,0.026 -0.0144,0.071 0.0118,0.084 0.0763,0.031 0.15264,0.062 0.22896,0.093 -0.78852,0.1678 -1.57702,0.3356 -2.36554,0.5034 -0.002,-0.093 0.004,-0.1892 -0.004,-0.281 -0.0204,-0.032 -0.0642,-0.055 -0.0543,-0.097 5.29e-4,-0.5721 -0.002,-1.1444 7.99e-4,-1.7164 0.002,-0.029 0.0263,-0.054 0.0558,-0.053 0,-0.059 0,-0.1181 0,-0.1771 0.89169,-0.098 1.78339,-0.1958 2.67509,-0.2937 0,0.4615 0,0.9231 0,1.3846 z m -2.77622,-1.061 c -0.005,0.018 0.007,0.048 -0.005,0.06 -0.0502,0.014 -0.0555,0.078 -0.0525,0.1209 0,0.5895 0,1.179 0,1.7684 -0.0207,0.038 -0.0669,0.068 -0.0566,0.1155 0,0.092 0,0.1839 0,0.2758 -0.0825,0.017 -0.165,0.035 -0.2475,0.053 0,-0.2074 0,-0.4148 0,-0.6222 -0.0228,-0.033 -0.0657,-0.058 -0.0543,-0.1028 7.99e-4,-0.5432 -0.002,-1.0866 7.99e-4,-1.6297 0.009,-0.029 0.0588,-0.011 0.0841,-0.022 0.11078,-0.012 0.22156,-0.024 0.33234,-0.036 -7.99e-4,0.01 -0.002,0.013 -0.003,0.019 z m 3.02551,1.9893 c -0.97475,0.244 -1.9495,0.4879 -2.92426,0.7318 0,-0.091 0,-0.1816 0,-0.2724 0.84042,-0.2008 1.68084,-0.4016 2.52125,-0.6025 0.13433,0.048 0.26867,0.095 0.40301,0.1431 z m -3.13897,0.6443 c 0.0105,0.053 -0.0418,-0.01 -0.0655,-0.012 -0.0428,-0.025 -0.0858,-0.05 -0.12867,-0.075 0.0647,-0.015 0.12947,-0.031 0.19419,-0.046 0,0.044 0,0.089 0,0.1333 z"
       id="path9003-3"
       inkscape:connector-curvature="0"
       inkscape:export-filename="C:\Users\Hiram\eval21-38-scoreboard.png" />
  </g>
</svg>
