<?xml version="1.0" encoding="UTF-8" standalone="no"?>
<!-- Created with Inkscape (http://www.inkscape.org/) -->

<svg
   xmlns:dc="http://purl.org/dc/elements/1.1/"
   xmlns:cc="http://creativecommons.org/ns#"
   xmlns:rdf="http://www.w3.org/1999/02/22-rdf-syntax-ns#"
   xmlns:svg="http://www.w3.org/2000/svg"
   xmlns="http://www.w3.org/2000/svg"
   xmlns:sodipodi="http://sodipodi.sourceforge.net/DTD/sodipodi-0.dtd"
   xmlns:inkscape="http://www.inkscape.org/namespaces/inkscape"
   width="14.69875mm"
   height="7.0251889mm"
   viewBox="0 0 14.69875 7.0251889"
   version="1.1"
   id="svg9930"
   inkscape:version="0.92.3 (2405546, 2018-03-11)"
   sodipodi:docname="ph-white.svg">
  <defs
     id="defs9924" />
  <sodipodi:namedview
     id="base"
     pagecolor="#ffffff"
     bordercolor="#666666"
     borderopacity="1.0"
     inkscape:pageopacity="0.0"
     inkscape:pageshadow="2"
     inkscape:zoom="3.959798"
     inkscape:cx="39.16481"
     inkscape:cy="17.864085"
     inkscape:document-units="mm"
     inkscape:current-layer="layer1"
     showgrid="false"
     fit-margin-top="0"
     fit-margin-left="0"
     fit-margin-right="0"
     fit-margin-bottom="0"
     scale-x="0.7"
     inkscape:pagecheckerboard="true" />
  <metadata
     id="metadata9927">
    <rdf:RDF>
      <cc:Work
         rdf:about="">
        <dc:format>image/svg+xml</dc:format>
        <dc:type
           rdf:resource="http://purl.org/dc/dcmitype/StillImage" />
        <dc:title></dc:title>
      </cc:Work>
    </rdf:RDF>
  </metadata>
  <g
     inkscape:label="Layer 1"
     inkscape:groupmode="layer"
     id="layer1"
     transform="translate(-79.599521,-171.75896)">
    <path
       inkscape:export-ydpi="299.81744"
       inkscape:export-xdpi="299.81744"
       d="m 84.664743,174.06891 c 0,0 -0.19466,-0.6159 -0.13998,-0.7393 0.0543,-0.1232 0.13209,-0.2003 0.31132,-0.2772 0.17898,-0.077 0.38142,-0.1154 0.48254,-0.092 0.10121,0.023 0.67743,0.2003 0.67743,0.2003 0,0 0.41267,-0.2175 0.53231,-0.177 0.11977,0.04 0.18115,0.231 0.17815,0.413 l 0.40297,0.1097 c 0,0 0.24803,-0.1271 0.35009,-0.1588 0.1023,-0.032 0.19599,-0.067 0.277581,0.02 0.0703,0.074 0.0873,0.1934 0.0807,0.3474 0,0 1.26133,0.3698 1.331441,0.416 0.07,0.046 0.108869,0.1541 0.0932,0.2619 -0.0155,0.1078 -0.10121,0.5391 -0.10121,0.5391 l -0.505981,0.2465 -0.0608,0.4162 0.80821,1.6713 -0.60733,0.3235 -0.794099,-0.1696 -0.467231,-2.4493 -1.30006,-0.3931 -0.1869,1.7639 -0.60744,0.3004 -0.66176,-0.2696 0.58411,-1.6252 -0.12455,-0.4852 z m 3.733351,1.2133 0.007,-0.042 -0.0347,-0.016 z m -0.782731,-1.652 c 0,0 0.0896,-0.1233 0,-0.1696 -0.0895,-0.046 -0.32305,0.1 -0.32305,0.1 z m -1.12109,-0.3121 c 0,0 0.0703,-0.019 0.0546,-0.1154 -0.0157,-0.096 -0.0584,-0.1117 -0.15973,-0.077 -0.10123,0.035 -0.20245,0.092 -0.20245,0.092 z m -1.01605,1.1167 0.0352,-0.088 -0.07,-0.023 z"
       id="path8993-9"
       inkscape:connector-curvature="0"
       style="opacity:1;fill:#ffffff;fill-opacity:1;stroke:none;stroke-width:0.14061041"
       inkscape:export-filename="C:\Users\Hiram\eval21-38-scoreboard.png" />
  </g>
</svg>
