<?xml version="1.0" encoding="UTF-8" standalone="no"?>
<!-- Created with Inkscape (http://www.inkscape.org/) -->

<svg
   xmlns:dc="http://purl.org/dc/elements/1.1/"
   xmlns:cc="http://creativecommons.org/ns#"
   xmlns:rdf="http://www.w3.org/1999/02/22-rdf-syntax-ns#"
   xmlns:svg="http://www.w3.org/2000/svg"
   xmlns="http://www.w3.org/2000/svg"
   xmlns:sodipodi="http://sodipodi.sourceforge.net/DTD/sodipodi-0.dtd"
   xmlns:inkscape="http://www.inkscape.org/namespaces/inkscape"
   width="14.69875mm"
   height="7.0251889mm"
   viewBox="0 0 14.69875 7.0251889"
   version="1.1"
   id="svg9930"
   inkscape:version="0.92.3 (2405546, 2018-03-11)"
   sodipodi:docname="r-white.svg">
  <defs
     id="defs9924" />
  <sodipodi:namedview
     id="base"
     pagecolor="#ffffff"
     bordercolor="#666666"
     borderopacity="1.0"
     inkscape:pageopacity="0.0"
     inkscape:pageshadow="2"
     inkscape:zoom="3.959798"
     inkscape:cx="39.16481"
     inkscape:cy="17.864085"
     inkscape:document-units="mm"
     inkscape:current-layer="layer1"
     showgrid="false"
     fit-margin-top="0"
     fit-margin-left="0"
     fit-margin-right="0"
     fit-margin-bottom="0"
     scale-x="0.7"
     inkscape:pagecheckerboard="true" />
  <metadata
     id="metadata9927">
    <rdf:RDF>
      <cc:Work
         rdf:about="">
        <dc:format>image/svg+xml</dc:format>
        <dc:type
           rdf:resource="http://purl.org/dc/dcmitype/StillImage" />
        <dc:title></dc:title>
      </cc:Work>
    </rdf:RDF>
  </metadata>
  <g
     inkscape:label="Layer 1"
     inkscape:groupmode="layer"
     id="layer1"
     transform="translate(-79.599521,-171.75896)">
    <path
       inkscape:export-ydpi="299.81744"
       inkscape:export-xdpi="299.81744"
       style="opacity:1;fill:#ffffff;fill-opacity:1;stroke:none;stroke-width:0.14061041"
       d="m 87.355896,173.2868 v 0.024 0.066 2.2418 c -0.1772,0.032 -0.32883,0.1774 -0.41717,0.382 -0.0514,-0.079 -0.11848,-0.1499 -0.19882,-0.2024 -0.0465,-0.031 -0.0993,-0.053 -0.15407,-0.066 v -2.3536 -0.066 -0.024 l -0.15352,-0.226 -0.16148,0.226 v 0.024 0.066 2.3506 c -0.39417,0.2503 -0.50224,0.5399 -0.50807,0.9156 0,0.4365 0.32257,0.8357 0.6347,0.8357 0.096,0 0.26175,-0.027 0.34189,-0.08 0.0824,-0.054 0.15104,-0.1266 0.20294,-0.2082 0.0286,-0.045 0.0515,-0.093 0.0714,-0.1414 0.1646,0.1948 0.28083,0.2891 0.49503,0.2891 0.0921,0 0.2101,-0.063 0.28685,-0.1136 0.0789,-0.052 0.14465,-0.1213 0.19444,-0.1994 0.11571,-0.2128 0.14273,-0.4038 0.14501,-0.6152 -0.002,-0.2257 -0.0447,-0.3674 -0.14473,-0.5245 -0.0498,-0.078 -0.11536,-0.148 -0.19444,-0.1997 -0.0484,-0.032 -0.10357,-0.054 -0.16066,-0.066 v -2.2448 -0.066 -0.024 h -2.6e-4 l -0.13622,-0.2233 z m 0.12056,2.4898 c 0.0611,0.012 0.11852,0.039 0.16698,0.079 0.0616,0.049 0.10931,0.1133 0.14748,0.1829 0.0689,0.1273 0.10221,0.2729 0.10765,0.4194 -0.005,0.1464 -0.0385,0.2921 -0.1071,0.4193 -0.0383,0.07 -0.0861,0.1345 -0.14775,0.1832 -0.0499,0.041 -0.10967,0.068 -0.17303,0.079 -0.16609,-0.027 -0.30735,-0.1717 -0.38475,-0.3749 0.004,-0.04 0.008,-0.079 0.008,-0.1189 -0.004,-0.031 0,-0.061 0,-0.091 -7.91e-4,-0.097 -0.016,-0.1951 -0.0419,-0.29 0.0632,-0.264 0.22643,-0.4583 0.42458,-0.4877 z m -1.07682,0.109 c 0.0679,0.011 0.13193,0.04 0.18537,0.083 0.0642,0.051 0.11411,0.1186 0.15407,0.1912 0.0719,0.1334 0.10706,0.2857 0.11259,0.4388 -0.005,0.1536 -0.0402,0.3071 -0.11231,0.4408 -0.0399,0.072 -0.0899,0.1403 -0.15407,0.1911 -0.0536,0.043 -0.11773,0.072 -0.18565,0.083 -0.25251,-0.042 -0.44958,-0.3431 -0.46467,-0.7148 0.0156,-0.3709 0.21254,-0.6719 0.46467,-0.7135 z"
       id="path8995-9"
       inkscape:connector-curvature="0"
       sodipodi:nodetypes="cccccccccccccccccccccccccccccccccccccccccccccccccccccc"
       inkscape:export-filename="C:\Users\Hiram\eval21-38-scoreboard.png" />
  </g>
</svg>
