<?xml version="1.0" encoding="UTF-8" standalone="no"?>
<!-- Created with Inkscape (http://www.inkscape.org/) -->

<svg
   xmlns:dc="http://purl.org/dc/elements/1.1/"
   xmlns:cc="http://creativecommons.org/ns#"
   xmlns:rdf="http://www.w3.org/1999/02/22-rdf-syntax-ns#"
   xmlns:svg="http://www.w3.org/2000/svg"
   xmlns="http://www.w3.org/2000/svg"
   xmlns:sodipodi="http://sodipodi.sourceforge.net/DTD/sodipodi-0.dtd"
   xmlns:inkscape="http://www.inkscape.org/namespaces/inkscape"
   width="52.068146mm"
   height="10.618622mm"
   viewBox="0 0 52.068146 10.618622"
   version="1.1"
   id="svg2242"
   inkscape:version="0.92.3 (2405546, 2018-03-11)"
   sodipodi:docname="stseval21.svg">
  <defs
     id="defs2236" />
  <sodipodi:namedview
     id="base"
     pagecolor="#ffffff"
     bordercolor="#666666"
     borderopacity="1.0"
     inkscape:pageopacity="0.0"
     inkscape:pageshadow="2"
     inkscape:zoom="1.979899"
     inkscape:cx="74.937643"
     inkscape:cy="15.156417"
     inkscape:document-units="mm"
     inkscape:current-layer="layer1"
     showgrid="false"
     fit-margin-top="1"
     fit-margin-left="1"
     fit-margin-right="1"
     fit-margin-bottom="1"
     inkscape:pagecheckerboard="true" />
  <metadata
     id="metadata2239">
    <rdf:RDF>
      <cc:Work
         rdf:about="">
        <dc:format>image/svg+xml</dc:format>
        <dc:type
           rdf:resource="http://purl.org/dc/dcmitype/StillImage" />
        <dc:title></dc:title>
      </cc:Work>
    </rdf:RDF>
  </metadata>
  <g
     inkscape:label="Layer 1"
     inkscape:groupmode="layer"
     id="layer1"
     transform="translate(-56.364737,-145.79188)">
    <g
       id="g3762"
       transform="translate(29.186092,-231.55158)">
      <path
         inkscape:connector-curvature="0"
         id="path1745"
         d="m 44.663475,381.12168 a 2.9035244,2.9035244 0 0 0 -2.903524,2.90352 2.9035244,2.9035244 0 0 0 2.903524,2.90352 2.9035244,2.9035244 0 0 0 2.903525,-2.90352 2.9035244,2.9035244 0 0 0 0,-7.7e-4 h -1.17849 a 1.7250351,1.7250351 0 0 1 0,7.7e-4 1.7250351,1.7250351 0 0 1 -1.725035,1.72503 1.7250351,1.7250351 0 0 1 -1.725035,-1.72503 1.7250351,1.7250351 0 0 1 1.725035,-1.72504 1.7250351,1.7250351 0 0 1 1.169016,0.46062 l -1.279499,1.26362 h 1.674864 l 1.295244,-1.30525 -0.8385,-0.77619 -0.0028,-0.002 a 2.9035244,2.9035244 0 0 0 -2.018324,-0.81973 z"
         style="opacity:1;vector-effect:none;fill:#ffffff;fill-opacity:1;stroke:none;stroke-width:0.04286296;stroke-linecap:butt;stroke-linejoin:round;stroke-miterlimit:4;stroke-dasharray:none;stroke-dashoffset:0;stroke-opacity:1" />
      <path
         inkscape:connector-curvature="0"
         id="rect5464"
         d="m 48.266994,381.13422 -0.908018,0.87479 2.55406,4.89009 h 0.928034 l 2.55406,-4.89009 -0.908018,-0.87479 -2.109993,4.00062 z"
         style="opacity:1;vector-effect:none;fill:#ffffff;fill-opacity:1;stroke:none;stroke-width:0.03506231;stroke-linecap:butt;stroke-linejoin:round;stroke-miterlimit:4;stroke-dasharray:none;stroke-dashoffset:0;stroke-opacity:1" />
      <path
         inkscape:connector-curvature="0"
         id="path5472"
         d="m 55.938516,381.14516 a 2.9082969,2.9085014 0 0 0 -2.908327,2.90846 2.9082969,2.9085014 0 0 0 2.908327,2.90846 2.9082969,2.9085014 0 0 0 0.714673,-0.0945 l -0.292221,-1.13205 a 1.7348919,1.7350139 0 0 1 -0.41885,0.0531 1.7348919,1.7350139 0 0 1 -1.734909,-1.73504 1.7348919,1.7350139 0 0 1 1.734909,-1.73503 1.7348919,1.7350139 0 0 1 1.73491,1.73503 1.7348919,1.7350139 0 0 1 -8e-4,0.0131 h 8e-4 v 2.82706 h 1.169816 v -2.84014 a 2.9082969,2.9085014 0 0 0 0,-1.3e-4 2.9082969,2.9085014 0 0 0 -2.908328,-2.90833 z"
         style="opacity:1;vector-effect:none;fill:#ffffff;fill-opacity:1;stroke:none;stroke-width:0.04389403;stroke-linecap:butt;stroke-linejoin:round;stroke-miterlimit:4;stroke-dasharray:none;stroke-dashoffset:0;stroke-opacity:1" />
      <path
         sodipodi:nodetypes="ccccc"
         inkscape:connector-curvature="0"
         id="rect5488"
         d="m 59.171404,379.57614 1.16141,-1.18355 v 8.50121 h -1.16141 z"
         style="opacity:1;vector-effect:none;fill:#ffffff;fill-opacity:1;stroke:none;stroke-width:0.04286296;stroke-linecap:butt;stroke-linejoin:round;stroke-miterlimit:4;stroke-dasharray:none;stroke-dashoffset:0;stroke-opacity:1" />
      <path
         inkscape:connector-curvature="0"
         id="path5517"
         d="m 65.011207,378.34495 c -0.641521,-0.0204 -1.309313,0.16755 -1.916524,0.61381 -0.341179,0.25075 -0.920523,0.95658 -0.994774,1.1976 0.292072,0.14586 0.7757,0.35545 1.122309,0.50294 l 0.394536,-0.40935 c 0.537703,-0.55827 1.13875,-0.75942 1.735299,-0.58069 1.101645,0.33006 1.657903,1.44709 1.230304,2.47047 -0.147196,0.35228 -0.479554,0.71247 -3.053232,3.30953 l -1.487223,1.5008 h 3.079148 3.079355 v -0.63191 -0.63192 h -1.54379 -1.543998 L 66.216,384.55405 c 1.350875,-1.38632 1.674392,-1.90551 1.74641,-2.80268 0.155827,-1.94129 -1.311759,-3.35428 -2.951203,-3.40642 z"
         style="fill:#ffffff;stroke-width:0.1053193" />
      <path
         inkscape:connector-curvature="0"
         id="path5504"
         d="m 70.76165,378.4192 c -0.112588,0 -2.491097,2.40919 -2.547204,2.57745 l 0.786396,0.88801 0.285103,-0.27317 0.294978,-0.28263 v 2.81071 2.81049 h 0.631916 0.631913 v -4.26543 c 0,-2.34597 -0.03748,-4.26543 -0.0831,-4.26543 z"
         style="fill:#ffffff;stroke-width:0.1053193" />
      <path
         sodipodi:nodetypes="cccccccccscsccccccccccccccccccccccccccccccccccccccccccccc"
         inkscape:connector-curvature="0"
         id="path8230"
         d="m 34.148918,378.41928 -1.197318,1.20875 v 4.44484 c 0.0077,0.39143 0.08823,0.75954 0.241748,1.10488 0.161199,0.34552 0.371907,0.64527 0.632896,0.89867 0.260988,0.25333 0.564501,0.45644 0.909922,0.61001 0.345431,0.14585 0.64856,0.21898 1.040042,0.21898 v -1.19733 c -0.230283,0 -0.38457,-0.042 -0.591825,-0.12662 -0.207256,-0.0921 -0.387036,-0.21479 -0.540559,-0.36828 -0.153523,-0.15348 -0.276213,-0.33434 -0.368327,-0.54165 -0.08443,-0.20723 -0.126579,-0.42545 -0.126579,-0.65568 v -0.15046 -1.52001 h 1.669402 v -1.19734 h -1.669402 v -2.72868 z m -1.399182,2.71735 c -0.391483,0 -0.805939,0.0764 -1.15136,0.23039 -0.345431,0.14584 -0.648933,0.34913 -0.909922,0.61008 -0.253312,0.26088 -0.456552,0.56442 -0.610074,0.90977 -0.145836,0.34551 -0.222651,0.71352 -0.230338,1.10505 6e-6,0.23031 -0.04587,0.44946 -0.137989,0.65686 -0.08444,0.1995 -0.203394,0.37557 -0.356917,0.52906 -0.145841,0.14593 -0.322923,0.26483 -0.530179,0.35693 -0.199579,0.0845 -0.414028,0.12653 -0.644312,0.12653 v 1.23269 c 0.391483,0 0.759555,-0.073 1.104976,-0.21889 0.353102,-0.15366 0.660349,-0.35678 0.921338,-0.61009 0.268664,-0.26097 0.480414,-0.5608 0.633937,-0.89851 0.153512,-0.34542 0.234061,-0.71353 0.241748,-1.10497 0,-0.23031 0.04214,-0.44586 0.126579,-0.64543 0.09211,-0.20723 0.211069,-0.38708 0.356911,-0.54057 0.153522,-0.16122 0.329569,-0.28388 0.529148,-0.36827 0.207256,-0.0921 0.42648,-0.13804 0.656764,-0.13804 z m 7.824668,0 c -0.391488,0 -0.75956,0.0764 -1.10498,0.23039 -0.345432,0.14584 -0.648934,0.34913 -0.909922,0.61008 -0.253313,0.26088 -0.456553,0.56442 -0.610075,0.90977 -0.145836,0.34551 -0.222651,0.71352 -0.230332,1.10505 0,0.23031 -0.04588,0.44946 -0.137995,0.65686 -0.08444,0.1995 -0.203388,0.37557 -0.356911,0.52906 -0.145847,0.14593 -0.322929,0.26483 -0.530185,0.35693 -0.199579,0.0845 -0.414027,0.12653 -0.644311,0.12653 v 1.23269 c 0.391483,0 0.759554,-0.073 1.10498,-0.21889 0.353103,-0.15366 0.660344,-0.35678 0.921333,-0.61009 0.268665,-0.26097 0.480414,-0.5608 0.633937,-0.89851 0.153512,-0.34542 0.234061,-0.71353 0.241748,-1.10497 0,-0.23031 0.04214,-0.44586 0.126579,-0.64543 0.09211,-0.20723 0.21107,-0.38708 0.356916,-0.54057 0.153523,-0.16122 0.329564,-0.28388 0.529143,-0.36827 0.207256,-0.0921 0.42648,-0.13804 0.656764,-0.13804 z"
         style="color:#000000;font-style:normal;font-variant:normal;font-weight:normal;font-stretch:normal;font-size:medium;line-height:125%;font-family:'JK Abode';-inkscape-font-specification:'JK Abode';text-indent:0;text-align:start;text-decoration:none;text-decoration-line:none;text-decoration-style:solid;text-decoration-color:#000000;letter-spacing:0px;word-spacing:0px;text-transform:none;writing-mode:lr-tb;direction:ltr;baseline-shift:baseline;text-anchor:start;white-space:normal;clip-rule:nonzero;visibility:visible;isolation:auto;mix-blend-mode:normal;color-interpolation:sRGB;color-interpolation-filters:linearRGB;solid-color:#000000;solid-opacity:1;fill:#c83737;fill-opacity:1;fill-rule:nonzero;stroke:none;stroke-width:0.15540433px;stroke-linecap:butt;stroke-linejoin:miter;stroke-miterlimit:4;stroke-dasharray:none;stroke-dashoffset:0;stroke-opacity:1;color-rendering:auto;image-rendering:auto;shape-rendering:auto;text-rendering:auto" />
      <path
         inkscape:connector-curvature="0"
         id="path5529"
         style="font-style:normal;font-variant:normal;font-weight:normal;font-stretch:normal;font-size:3.48198771px;line-height:1.25;font-family:Arial;-inkscape-font-specification:'Arial, Normal';font-variant-ligatures:no-common-ligatures;font-variant-caps:normal;font-variant-numeric:normal;font-feature-settings:normal;text-align:start;letter-spacing:0px;word-spacing:0px;writing-mode:lr-tb;text-anchor:start;fill:#ffffff;fill-opacity:1;stroke:none;stroke-width:0.84706825"
         d="m 75.712204,381.89237 q 0.651845,0 1.25075,0.32758 0.598903,0.32758 0.939715,0.9364 0.344122,0.60553 0.344122,1.27059 0,0.66178 -0.337503,1.264 -0.334195,0.5989 -0.936409,0.9364 -0.598903,0.3342 -1.260675,0.3342 -0.661772,0 -1.263984,-0.3342 -0.598905,-0.3375 -0.936408,-0.9364 -0.334195,-0.60222 -0.334195,-1.264 0,-0.66506 0.340812,-1.27059 0.344122,-0.60882 0.943025,-0.9364 0.598905,-0.32758 1.25075,-0.32758 z m 0,0.49964 q -0.5228,0 -1.005894,0.26139 -0.479784,0.26141 -0.75442,0.75112 -0.274634,0.48639 -0.274634,1.02242 0,0.52944 0.268017,1.01252 0.271325,0.4831 0.75442,0.75443 0.483094,0.26801 1.012511,0.26801 0.529417,0 1.012511,-0.26801 0.483095,-0.27133 0.751112,-0.75443 0.271325,-0.48308 0.271325,-1.01252 0,-0.53272 -0.274634,-1.02242 -0.274636,-0.48971 -0.75773,-0.75112 -0.479784,-0.26139 -1.002584,-0.26139 z m 0.615448,2.41216 0.532727,0.17866 q -0.125742,0.41691 -0.416917,0.6386 -0.29118,0.2217 -0.694861,0.2217 -0.565814,0 -0.923172,-0.37061 -0.357356,-0.37059 -0.357356,-1.02242 0,-0.42685 0.158827,-0.76105 0.158827,-0.33419 0.456622,-0.49964 0.301106,-0.16542 0.671698,-0.16542 0.406991,0 0.678317,0.19524 0.274636,0.19189 0.426844,0.60882 l -0.536036,0.12572 q -0.09264,-0.24156 -0.241547,-0.35074 -0.145593,-0.10918 -0.347431,-0.10918 -0.301106,0 -0.49302,0.22831 -0.191912,0.22501 -0.191912,0.70809 0,0.4831 0.188604,0.71142 0.188603,0.22831 0.453314,0.22831 0.221694,0 0.383828,-0.12903 0.162135,-0.13234 0.251472,-0.43676 z" />
    </g>
  </g>
</svg>
