<?xml version="1.0" encoding="utf-8"?>
<!-- Generator: Adobe Illustrator 24.0.2, SVG Export Plug-In . SVG Version: 6.00 Build 0)  -->
<svg version="1.1" id="Layer_1" xmlns="http://www.w3.org/2000/svg" xmlns:xlink="http://www.w3.org/1999/xlink" x="0px" y="0px"
	 viewBox="0 0 122.03 46.31" style="enable-background:new 0 0 122.03 46.31;" xml:space="preserve">
<style type="text/css">
	.st0{fill:#FFFFFF;}
	.st1{fill:#E24445;}
</style>
<path class="st0" d="M74.05,34.85c0,2.99-1.05,5.53-3.15,7.63c-2.1,2.1-4.65,3.15-7.63,3.15v-4.62c1.7,0,3.16-0.6,4.36-1.81
	c1.2-1.2,1.81-2.66,1.81-4.36V23.89c-0.03-1.62-0.63-3.02-1.81-4.19c-1.2-1.2-2.66-1.81-4.36-1.81c-1.7,0-3.15,0.6-4.36,1.81
	c-1.2,1.2-1.81,2.66-1.81,4.36c0,1.7,0.6,3.15,1.81,4.36c1.2,1.2,2.66,1.81,4.36,1.81c2.67-0.01,4-0.92,5.34-2.21v5.01
	c-1.66,1.42-2.79,1.79-5.34,1.82c-2.99,0.03-5.53-1.05-7.63-3.15c-2.1-2.1-3.15-4.65-3.15-7.63c0-2.99,1.05-5.53,3.15-7.63
	c2.1-2.1,4.65-3.16,7.63-3.16c2.99,0,5.53,1.05,7.63,3.16c2.1,2.1,3.15,4.65,3.15,7.63V34.85z"/>
<path class="st0" d="M86,34.42c-2.99,0-5.53-1.05-7.63-3.15c-2.1-2.1-3.15-4.65-3.15-7.63V12.84h4.62v10.79
	c0,1.7,0.6,3.15,1.81,4.36c1.2,1.2,2.66,1.81,4.36,1.81l2.3-0.01l0.04,4.62L86,34.42z M93.7,34.42c0,2.99-1.05,5.53-3.15,7.63
	c-2.1,2.1-4.65,3.15-7.63,3.15v-4.62c1.7,0,3.15-0.6,4.36-1.81c1.2-1.2,1.81-2.66,1.81-4.36V12.84h4.62V34.42z"/>
<path class="st0" d="M99.77,12.84c2.99,0,5.53,1.05,7.63,3.16c2.1,2.1,3.15,4.65,3.15,7.63v10.79h-4.62V23.63
	c0-1.7-0.6-3.15-1.81-4.36c-1.2-1.2-2.66-1.81-4.36-1.81v16.95h-4.62V12.84H99.77z M110.56,12.84c2.99,0,5.53,1.05,7.63,3.16
	c2.1,2.1,3.15,4.65,3.15,7.63v10.79h-4.62V23.63c0-1.7-0.6-3.15-1.81-4.36c-1.2-1.2-2.66-1.81-4.36-1.81l-3.73-0.06l-0.03-4.56
	L110.56,12.84z"/>
<path class="st1" d="M19.03,17.01c-0.93,0-1.81,0.18-2.63,0.53c-0.82,0.36-1.53,0.85-2.14,1.49c-0.6,0.64-1.09,1.36-1.44,2.18
	c-0.36,0.82-0.53,1.7-0.53,2.63c-0.03,1.58-0.36,3.06-0.98,4.44c-0.62,1.38-1.46,2.59-2.53,3.63c-1.07,1.04-2.31,1.86-3.72,2.46
	c-1.41,0.6-2.91,0.91-4.49,0.91v-4.97c0.93,0,1.81-0.18,2.63-0.53c0.82-0.36,1.53-0.84,2.14-1.44c0.6-0.6,1.08-1.32,1.44-2.14
	c0.36-0.82,0.53-1.7,0.53-2.63c0.03-1.58,0.35-3.07,0.95-4.46c0.6-1.39,1.43-2.62,2.46-3.67c1.04-1.05,2.25-1.88,3.65-2.49
	c1.39-0.6,2.88-0.91,4.46-0.91L19.03,17.01z"/>
<path class="st1" d="M25.37,26.31c0.36,0.84,0.84,1.57,1.46,2.19c0.62,0.62,1.35,1.11,2.19,1.46c0.84,0.36,1.72,0.53,2.65,0.53v4.83
	c-1.58,0-3.07-0.3-4.46-0.91c-1.39-0.6-2.62-1.42-3.67-2.44c-1.05-1.02-1.9-2.23-2.53-3.63c-0.64-1.39-0.97-2.88-1-4.46V5.95
	l4.83-4.88v11.02h1.72h5.02v4.83h-6.74v6.14v0.6C24.84,24.59,25.02,25.47,25.37,26.31z"/>
<path class="st1" d="M50.97,17.01c-0.93,0-1.81,0.18-2.63,0.53c-0.82,0.36-1.53,0.85-2.14,1.49c-0.6,0.64-1.09,1.36-1.44,2.18
	c-0.36,0.82-0.53,1.7-0.53,2.63c-0.03,1.58-0.36,3.06-0.98,4.44c-0.62,1.38-1.46,2.59-2.53,3.63c-1.07,1.04-2.31,1.86-3.72,2.46
	c-1.41,0.6-2.91,0.91-4.49,0.91v-4.97c0.93,0,1.81-0.18,2.63-0.53c0.82-0.36,1.53-0.84,2.14-1.44c0.6-0.6,1.08-1.32,1.44-2.14
	c0.36-0.82,0.53-1.7,0.53-2.63c0.03-1.58,0.35-3.07,0.95-4.46c0.6-1.39,1.43-2.62,2.46-3.67c1.04-1.05,2.25-1.88,3.65-2.49
	c1.39-0.6,2.88-0.91,4.46-0.91L50.97,17.01z"/>
<path class="st1" d="M51.95,4.7c0,2-1.55,3.55-3.55,3.55c-1.91,0-3.46-1.55-3.46-3.55c0-1.91,1.55-3.46,3.46-3.46
	C50.4,1.25,51.95,2.79,51.95,4.7L51.95,4.7z"/>
<polygon class="st0" points="54.31,9.07 54.31,0.39 56.08,0.39 56.08,7.6 60.5,7.6 60.5,9.07 "/>
<rect x="61.82" y="0.39" class="st0" width="1.77" height="8.69"/>
<polygon class="st0" points="67.42,9.07 64.33,0.39 66.24,0.39 68.45,6.87 70.51,0.39 72.42,0.39 69.33,9.07 "/>
<polygon class="st0" points="73.31,9.07 73.31,0.39 79.79,0.39 79.79,1.86 75.07,1.86 75.07,3.77 79.49,3.77 79.49,5.25 75.07,5.25 
	75.07,7.6 79.93,7.6 79.93,9.07 "/>
<path class="st1" d="M53.66,17.58c0.38-0.55,0.82-1.08,1.32-1.58c0.81-0.81,1.68-1.46,2.62-1.95c-0.76-0.53-1.59-0.98-2.49-1.32
	c-1.41-0.54-2.9-0.77-4.47-0.7l0.05,4.98c0.92-0.04,1.8,0.09,2.63,0.41C53.45,17.46,53.55,17.53,53.66,17.58z"/>
<path class="st0" d="M110.52,14.11"/>
<path class="st0" d="M110.62,13.79"/>
</svg>
