<?xml version="1.0" encoding="UTF-8" standalone="no"?>
<!-- Generator: Adobe Illustrator 15.1.0, SVG Export Plug-In  -->

<svg
   xmlns:dc="http://purl.org/dc/elements/1.1/"
   xmlns:cc="http://creativecommons.org/ns#"
   xmlns:rdf="http://www.w3.org/1999/02/22-rdf-syntax-ns#"
   xmlns:svg="http://www.w3.org/2000/svg"
   xmlns="http://www.w3.org/2000/svg"
   xmlns:sodipodi="http://sodipodi.sourceforge.net/DTD/sodipodi-0.dtd"
   xmlns:inkscape="http://www.inkscape.org/namespaces/inkscape"
   version="1.1"
   x="0px"
   y="0px"
   width="52"
   height="37"
   viewBox="-17.559 -7.606 52 37"
   enable-background="new -17.559 -7.606 74 53"
   xml:space="preserve"
   id="svg2"
   inkscape:version="0.91 r13725"
   sodipodi:docname="WAG_UB_White.svg"><metadata
     id="metadata10"><rdf:RDF><cc:Work
         rdf:about=""><dc:format>image/svg+xml</dc:format><dc:type
           rdf:resource="http://purl.org/dc/dcmitype/StillImage" /><dc:title></dc:title></cc:Work></rdf:RDF></metadata><sodipodi:namedview
     pagecolor="#ffffff"
     bordercolor="#666666"
     borderopacity="1"
     objecttolerance="10"
     gridtolerance="10"
     guidetolerance="10"
     inkscape:pageopacity="0"
     inkscape:pageshadow="2"
     inkscape:window-width="1376"
     inkscape:window-height="724"
     id="namedview8"
     showgrid="false"
     inkscape:zoom="3.8918919"
     inkscape:cx="-63.979166"
     inkscape:cy="26.5"
     inkscape:window-x="100"
     inkscape:window-y="100"
     inkscape:window-maximized="0"
     inkscape:current-layer="svg2" /><defs
     id="defs4" /><path
     d="m 24.477707,19.101138 -0.982368,0.599616 0.590112,-7.744898 0,-8.64e-4 1.152576,-15.7377633 -20.5917156,-1.6467842 0.07776,10.2124821 -4.02364896,1.1931842 -9.05644994,-2.3042884 5.3006411,13.2917796 -2.3414406,0.806976 1.2061443,0.357696 11.6259861,-4.265569 -0.70416,-0.268704 -1.206144,0.41472 -0.04579,-6.0626897 5.4233296,1.3798085 3.95712,15.6444522 -2.633473,1.60704 1.219969,0.640224 3.669409,-2.386369 0.255744,-0.14256 0.01901,-0.03715 7.798465,-5.071681 -0.711072,-0.478656 z m -19.6836516,-5.069953 -6.4791375,2.278369 6.0402255,-8.6486428 0.391392,0.09936 0.04752,6.2709138 z M 4.7301194,5.5441107 4.7309834,5.8456468 4.0449674,6.8288791 2.0836864,6.3294869 4.7301194,5.5441107 Z M -7.1464273,4.7336786 -0.66815387,6.3821909 -5.8720271,7.9261593 -7.1464273,4.7336786 Z M 0.71511044,6.734703 3.5982794,7.4682392 -2.5464903,16.26549 -5.600731,8.6078554 0.71511044,6.734703 Z M 11.50388,8.7262235 5.4731594,7.1917591 5.3833034,-4.6364035 24.455243,-3.1114431 23.522123,9.6420638 12.947625,14.432081 11.50388,8.7262235 Z m 1.626049,6.4255695 10.33085,-4.680289 -0.09331,1.27872 -6.240673,11.837667 -1.613089,0.98496 -2.383776,-9.421058 z m 10.098434,-1.570752 -0.50112,6.588001 -4.381345,2.674945 4.882465,-9.262946 z"
     id="path6"
     style="fill:#ffffff;fill-opacity:1"
     inkscape:connector-curvature="0" /></svg>