<?xml version="1.0" encoding="UTF-8" standalone="no"?>
<!-- Created with Inkscape (http://www.inkscape.org/) -->

<svg
   xmlns:dc="http://purl.org/dc/elements/1.1/"
   xmlns:cc="http://creativecommons.org/ns#"
   xmlns:rdf="http://www.w3.org/1999/02/22-rdf-syntax-ns#"
   xmlns:svg="http://www.w3.org/2000/svg"
   xmlns="http://www.w3.org/2000/svg"
   xmlns:sodipodi="http://sodipodi.sourceforge.net/DTD/sodipodi-0.dtd"
   xmlns:inkscape="http://www.inkscape.org/namespaces/inkscape"
   width="14.69875mm"
   height="7.0251889mm"
   viewBox="0 0 14.69875 7.0251889"
   version="1.1"
   id="svg9930"
   inkscape:version="0.92.3 (2405546, 2018-03-11)"
   sodipodi:docname="v-white.svg">
  <defs
     id="defs9924" />
  <sodipodi:namedview
     id="base"
     pagecolor="#ffffff"
     bordercolor="#666666"
     borderopacity="1.0"
     inkscape:pageopacity="0.0"
     inkscape:pageshadow="2"
     inkscape:zoom="3.959798"
     inkscape:cx="39.16481"
     inkscape:cy="17.864085"
     inkscape:document-units="mm"
     inkscape:current-layer="layer1"
     showgrid="false"
     fit-margin-top="0"
     fit-margin-left="0"
     fit-margin-right="0"
     fit-margin-bottom="0"
     scale-x="0.7"
     inkscape:pagecheckerboard="true" />
  <metadata
     id="metadata9927">
    <rdf:RDF>
      <cc:Work
         rdf:about="">
        <dc:format>image/svg+xml</dc:format>
        <dc:type
           rdf:resource="http://purl.org/dc/dcmitype/StillImage" />
        <dc:title></dc:title>
      </cc:Work>
    </rdf:RDF>
  </metadata>
  <g
     inkscape:label="Layer 1"
     inkscape:groupmode="layer"
     id="layer1"
     transform="translate(-79.599521,-171.75896)">
    <path
       inkscape:export-ydpi="299.81744"
       inkscape:export-xdpi="299.81744"
       style="opacity:1;fill:#ffffff;fill-opacity:1;stroke:none;stroke-width:0.14061041"
       d="m 85.941118,173.076 c -0.24218,0 -0.4896,0.016 -0.61319,0.067 -0.12369,0.052 -0.36615,0.1908 -0.42799,0.3041 -0.0618,0.1135 -0.0411,0.2942 -0.0464,0.3301 -0.005,0.036 0.0721,0.067 0.17,0.077 0.25619,0.038 0.50941,0.074 0.76438,0.1088 0.25682,0.038 0.5092,0.092 0.76058,0.152 0.12565,0.031 0.24996,0.063 0.37559,0.1008 0.13118,0.042 0.24615,0.1043 0.35959,0.1692 0.0563,0.034 0.11154,0.068 0.1656,0.1062 0.0534,0.036 0.10869,0.081 0.1522,0.1284 0.0905,0.093 0.17579,0.19 0.25701,0.2912 0,0 0.29891,0.2629 0.43818,0.2578 0.13895,-0.01 0.34509,-0.052 0.49459,-0.165 0.1495,-0.1134 0.31966,-0.6081 0.2268,-0.8144 -0.0926,-0.2062 -0.23686,-0.6028 -0.89158,-0.7523 -0.65464,-0.1495 -0.79379,-0.1752 -0.79379,-0.1752 -0.5721,-0.098 -1.14929,-0.1856 -1.39157,-0.1856 z m -0.91739,0.7783 v 0.077 l 1.22139,0.5 0.0463,1.6186 c 0,0 -0.0825,-0.016 -0.1032,0.031 -0.0205,0.046 0.1032,0.2114 0.1032,0.2114 l 0.005,0.206 c 0,0 -1.1544,0.2373 -1.17518,0.2476 -0.0207,0.01 -0.0154,0.087 -0.0154,0.087 l 0.0668,0.036 c 0,0 0.78875,-0.103 0.94337,-0.1236 0.15462,-0.021 0.2884,0 0.2884,0 l 1.02079,0.2216 0.54099,0.5002 0.12898,-0.026 -0.29898,-0.51 c 0,0 0.031,-0.026 0.0463,-0.088 l 1.09256,-0.2114 c 1.1e-4,-2e-4 0.0157,-0.1083 -0.0565,-0.1032 -0.0721,0 -1.03577,0.041 -1.03577,0.041 l 0.0154,-1.6544 c -0.14295,0.014 -0.28628,0 -0.428,-0.012 -0.142119,-0.018 -0.282369,-0.049 -0.419789,-0.093 -0.13618,-0.044 -0.26808,-0.097 -0.39679,-0.1576 -0.12836,-0.061 -0.25364,-0.1303 -0.36859,-0.217 0.13834,0.038 0.27246,0.08 0.40579,0.1242 0.13323,0.044 0.26591,0.09 0.39738,0.134 0.26287,0.087 0.53352,0.1518 0.81,0.2212 -0.10374,-0.078 -0.20385,-0.1594 -0.3042,-0.239 -0.096,-0.079 -0.20715,-0.1389 -0.31999,-0.1974 -0.11284,-0.057 -0.22778,-0.1137 -0.34379,-0.1452 -0.12165,-0.034 -0.24677,-0.064 -0.37119,-0.094 -0.12432,-0.031 -0.24907,-0.061 -0.37399,-0.09 -0.12462,-0.03 -0.24988,-0.057 -0.3748,-0.084 -0.25241,-0.051 -0.50429,-0.1165 -0.74677,-0.2066 z"
       id="path8997-8"
       inkscape:connector-curvature="0"
       inkscape:export-filename="C:\Users\Hiram\eval21-38-scoreboard.png" />
  </g>
</svg>
